<svg xmlns="http://www.w3.org/2000/svg" width="700" height="720">
  <rect width="100%" height="100%" fill="#0e0e1a"/>
  <rect x="0" y="0" width="700" height="240" fill="#1a1a2e"/>
  <text x="350" y="19" text-anchor="middle" font-family="monospace" font-size="13" font-weight="bold" fill="#ffffffcc">width  |  n=3418  |  50 bins</text>
  <rect x="55" y="38" width="625" height="174" fill="#0d0d20"/>
  <line x1="55.0" y1="38" x2="55.0" y2="212" stroke="#ffffff22" stroke-width="1"/>
  <text x="55.0" y="226" text-anchor="middle" font-family="monospace" font-size="10" fill="#ffffff88">0</text>
  <line x1="159.2" y1="38" x2="159.2" y2="212" stroke="#ffffff22" stroke-width="1"/>
  <text x="159.2" y="226" text-anchor="middle" font-family="monospace" font-size="10" fill="#ffffff88">0.043</text>
  <line x1="263.3" y1="38" x2="263.3" y2="212" stroke="#ffffff22" stroke-width="1"/>
  <text x="263.3" y="226" text-anchor="middle" font-family="monospace" font-size="10" fill="#ffffff88">0.087</text>
  <line x1="367.5" y1="38" x2="367.5" y2="212" stroke="#ffffff22" stroke-width="1"/>
  <text x="367.5" y="226" text-anchor="middle" font-family="monospace" font-size="10" fill="#ffffff88">0.13</text>
  <line x1="471.7" y1="38" x2="471.7" y2="212" stroke="#ffffff22" stroke-width="1"/>
  <text x="471.7" y="226" text-anchor="middle" font-family="monospace" font-size="10" fill="#ffffff88">0.17</text>
  <line x1="575.8" y1="38" x2="575.8" y2="212" stroke="#ffffff22" stroke-width="1"/>
  <text x="575.8" y="226" text-anchor="middle" font-family="monospace" font-size="10" fill="#ffffff88">0.22</text>
  <line x1="680.0" y1="38" x2="680.0" y2="212" stroke="#ffffff22" stroke-width="1"/>
  <text x="680.0" y="226" text-anchor="middle" font-family="monospace" font-size="10" fill="#ffffff88">0.26</text>
  <rect x="55.0" y="211.8" width="12.5" height="0.2" fill="#4a9eddcc" stroke="#2a6ea8" stroke-width="0.5"/>
  <rect x="67.5" y="199.0" width="12.5" height="13.0" fill="#4a9eddcc" stroke="#2a6ea8" stroke-width="0.5"/>
  <rect x="80.0" y="199.0" width="12.5" height="13.0" fill="#4a9eddcc" stroke="#2a6ea8" stroke-width="0.5"/>
  <rect x="92.5" y="198.1" width="12.5" height="13.9" fill="#4a9eddcc" stroke="#2a6ea8" stroke-width="0.5"/>
  <rect x="105.0" y="200.2" width="12.5" height="11.8" fill="#4a9eddcc" stroke="#2a6ea8" stroke-width="0.5"/>
  <rect x="117.5" y="202.4" width="12.5" height="9.6" fill="#4a9eddcc" stroke="#2a6ea8" stroke-width="0.5"/>
  <rect x="130.0" y="201.1" width="12.5" height="10.9" fill="#4a9eddcc" stroke="#2a6ea8" stroke-width="0.5"/>
  <rect x="142.5" y="198.7" width="12.5" height="13.3" fill="#4a9eddcc" stroke="#2a6ea8" stroke-width="0.5"/>
  <rect x="155.0" y="198.5" width="12.5" height="13.5" fill="#4a9eddcc" stroke="#2a6ea8" stroke-width="0.5"/>
  <rect x="167.5" y="201.7" width="12.5" height="10.3" fill="#4a9eddcc" stroke="#2a6ea8" stroke-width="0.5"/>
  <rect x="180.0" y="201.3" width="12.5" height="10.7" fill="#4a9eddcc" stroke="#2a6ea8" stroke-width="0.5"/>
  <rect x="192.5" y="199.5" width="12.5" height="12.5" fill="#4a9eddcc" stroke="#2a6ea8" stroke-width="0.5"/>
  <rect x="205.0" y="199.7" width="12.5" height="12.3" fill="#4a9eddcc" stroke="#2a6ea8" stroke-width="0.5"/>
  <rect x="217.5" y="201.3" width="12.5" height="10.7" fill="#4a9eddcc" stroke="#2a6ea8" stroke-width="0.5"/>
  <rect x="230.0" y="200.6" width="12.5" height="11.4" fill="#4a9eddcc" stroke="#2a6ea8" stroke-width="0.5"/>
  <rect x="242.5" y="200.4" width="12.5" height="11.6" fill="#4a9eddcc" stroke="#2a6ea8" stroke-width="0.5"/>
  <rect x="255.0" y="201.3" width="12.5" height="10.7" fill="#4a9eddcc" stroke="#2a6ea8" stroke-width="0.5"/>
  <rect x="267.5" y="197.6" width="12.5" height="14.4" fill="#4a9eddcc" stroke="#2a6ea8" stroke-width="0.5"/>
  <rect x="280.0" y="201.7" width="12.5" height="10.3" fill="#4a9eddcc" stroke="#2a6ea8" stroke-width="0.5"/>
  <rect x="292.5" y="201.3" width="12.5" height="10.7" fill="#4a9eddcc" stroke="#2a6ea8" stroke-width="0.5"/>
  <rect x="305.0" y="199.7" width="12.5" height="12.3" fill="#4a9eddcc" stroke="#2a6ea8" stroke-width="0.5"/>
  <rect x="317.5" y="197.8" width="12.5" height="14.2" fill="#4a9eddcc" stroke="#2a6ea8" stroke-width="0.5"/>
  <rect x="330.0" y="199.2" width="12.5" height="12.8" fill="#4a9eddcc" stroke="#2a6ea8" stroke-width="0.5"/>
  <rect x="342.5" y="201.3" width="12.5" height="10.7" fill="#4a9eddcc" stroke="#2a6ea8" stroke-width="0.5"/>
  <rect x="355.0" y="197.3" width="12.5" height="14.7" fill="#4a9eddcc" stroke="#2a6ea8" stroke-width="0.5"/>
  <rect x="367.5" y="199.7" width="12.5" height="12.3" fill="#4a9eddcc" stroke="#2a6ea8" stroke-width="0.5"/>
  <rect x="380.0" y="200.1" width="12.5" height="11.9" fill="#4a9eddcc" stroke="#2a6ea8" stroke-width="0.5"/>
  <rect x="392.5" y="200.1" width="12.5" height="11.9" fill="#4a9eddcc" stroke="#2a6ea8" stroke-width="0.5"/>
  <rect x="405.0" y="198.1" width="12.5" height="13.9" fill="#4a9eddcc" stroke="#2a6ea8" stroke-width="0.5"/>
  <rect x="417.5" y="201.5" width="12.5" height="10.5" fill="#4a9eddcc" stroke="#2a6ea8" stroke-width="0.5"/>
  <rect x="430.0" y="201.8" width="12.5" height="10.2" fill="#4a9eddcc" stroke="#2a6ea8" stroke-width="0.5"/>
  <rect x="442.5" y="198.7" width="12.5" height="13.3" fill="#4a9eddcc" stroke="#2a6ea8" stroke-width="0.5"/>
  <rect x="455.0" y="198.8" width="12.5" height="13.2" fill="#4a9eddcc" stroke="#2a6ea8" stroke-width="0.5"/>
  <rect x="467.5" y="199.9" width="12.5" height="12.1" fill="#4a9eddcc" stroke="#2a6ea8" stroke-width="0.5"/>
  <rect x="480.0" y="199.5" width="12.5" height="12.5" fill="#4a9eddcc" stroke="#2a6ea8" stroke-width="0.5"/>
  <rect x="492.5" y="198.5" width="12.5" height="13.5" fill="#4a9eddcc" stroke="#2a6ea8" stroke-width="0.5"/>
  <rect x="505.0" y="200.8" width="12.5" height="11.2" fill="#4a9eddcc" stroke="#2a6ea8" stroke-width="0.5"/>
  <rect x="517.5" y="198.7" width="12.5" height="13.3" fill="#4a9eddcc" stroke="#2a6ea8" stroke-width="0.5"/>
  <rect x="530.0" y="200.4" width="12.5" height="11.6" fill="#4a9eddcc" stroke="#2a6ea8" stroke-width="0.5"/>
  <rect x="542.5" y="199.9" width="12.5" height="12.1" fill="#4a9eddcc" stroke="#2a6ea8" stroke-width="0.5"/>
  <rect x="555.0" y="198.7" width="12.5" height="13.3" fill="#4a9eddcc" stroke="#2a6ea8" stroke-width="0.5"/>
  <rect x="567.5" y="197.3" width="12.5" height="14.7" fill="#4a9eddcc" stroke="#2a6ea8" stroke-width="0.5"/>
  <rect x="580.0" y="202.9" width="12.5" height="9.1" fill="#4a9eddcc" stroke="#2a6ea8" stroke-width="0.5"/>
  <rect x="592.5" y="197.6" width="12.5" height="14.4" fill="#4a9eddcc" stroke="#2a6ea8" stroke-width="0.5"/>
  <rect x="605.0" y="197.6" width="12.5" height="14.4" fill="#4a9eddcc" stroke="#2a6ea8" stroke-width="0.5"/>
  <rect x="617.5" y="200.9" width="12.5" height="11.1" fill="#4a9eddcc" stroke="#2a6ea8" stroke-width="0.5"/>
  <rect x="630.0" y="200.2" width="12.5" height="11.8" fill="#4a9eddcc" stroke="#2a6ea8" stroke-width="0.5"/>
  <rect x="642.5" y="200.4" width="12.5" height="11.6" fill="#4a9eddcc" stroke="#2a6ea8" stroke-width="0.5"/>
  <rect x="655.0" y="198.5" width="12.5" height="13.5" fill="#4a9eddcc" stroke="#2a6ea8" stroke-width="0.5"/>
  <rect x="667.5" y="199.2" width="12.5" height="12.8" fill="#4a9eddcc" stroke="#2a6ea8" stroke-width="0.5"/>
  <rect x="55.0" y="144.1" width="12.5" height="67.9" fill="#e07040cc" stroke="#a04010" stroke-width="0.5"/>
  <rect x="67.5" y="38.0" width="12.5" height="174.0" fill="#e07040cc" stroke="#a04010" stroke-width="0.5"/>
  <rect x="80.0" y="39.9" width="12.5" height="172.1" fill="#e07040cc" stroke="#a04010" stroke-width="0.5"/>
  <rect x="92.5" y="138.5" width="12.5" height="73.5" fill="#e07040cc" stroke="#a04010" stroke-width="0.5"/>
  <rect x="105.0" y="170.6" width="12.5" height="41.4" fill="#e07040cc" stroke="#a04010" stroke-width="0.5"/>
  <rect x="117.5" y="188.3" width="12.5" height="23.7" fill="#e07040cc" stroke="#a04010" stroke-width="0.5"/>
  <rect x="130.0" y="195.2" width="12.5" height="16.8" fill="#e07040cc" stroke="#a04010" stroke-width="0.5"/>
  <rect x="142.5" y="208.0" width="12.5" height="4.0" fill="#e07040cc" stroke="#a04010" stroke-width="0.5"/>
  <rect x="155.0" y="207.8" width="12.5" height="4.2" fill="#e07040cc" stroke="#a04010" stroke-width="0.5"/>
  <rect x="167.5" y="208.1" width="12.5" height="3.9" fill="#e07040cc" stroke="#a04010" stroke-width="0.5"/>
  <rect x="180.0" y="206.6" width="12.5" height="5.4" fill="#e07040cc" stroke="#a04010" stroke-width="0.5"/>
  <rect x="192.5" y="210.6" width="12.5" height="1.4" fill="#e07040cc" stroke="#a04010" stroke-width="0.5"/>
  <rect x="205.0" y="211.6" width="12.5" height="0.4" fill="#e07040cc" stroke="#a04010" stroke-width="0.5"/>
  <rect x="217.5" y="208.7" width="12.5" height="3.3" fill="#e07040cc" stroke="#a04010" stroke-width="0.5"/>
  <rect x="230.0" y="211.5" width="12.5" height="0.5" fill="#e07040cc" stroke="#a04010" stroke-width="0.5"/>
  <rect x="242.5" y="210.8" width="12.5" height="1.2" fill="#e07040cc" stroke="#a04010" stroke-width="0.5"/>
  <rect x="255.0" y="211.8" width="12.5" height="0.2" fill="#e07040cc" stroke="#a04010" stroke-width="0.5"/>
  <rect x="267.5" y="211.6" width="12.5" height="0.4" fill="#e07040cc" stroke="#a04010" stroke-width="0.5"/>
  <rect x="280.0" y="211.6" width="12.5" height="0.4" fill="#e07040cc" stroke="#a04010" stroke-width="0.5"/>
  <rect x="292.5" y="211.6" width="12.5" height="0.4" fill="#e07040cc" stroke="#a04010" stroke-width="0.5"/>
  <rect x="305.0" y="211.8" width="12.5" height="0.2" fill="#e07040cc" stroke="#a04010" stroke-width="0.5"/>
  <rect x="317.5" y="211.6" width="12.5" height="0.4" fill="#e07040cc" stroke="#a04010" stroke-width="0.5"/>
  <rect x="330.0" y="211.3" width="12.5" height="0.7" fill="#e07040cc" stroke="#a04010" stroke-width="0.5"/>
  <rect x="342.5" y="211.8" width="12.5" height="0.2" fill="#e07040cc" stroke="#a04010" stroke-width="0.5"/>
  <rect x="380.0" y="211.1" width="12.5" height="0.9" fill="#e07040cc" stroke="#a04010" stroke-width="0.5"/>
  <rect x="392.5" y="211.8" width="12.5" height="0.2" fill="#e07040cc" stroke="#a04010" stroke-width="0.5"/>
  <rect x="455.0" y="211.5" width="12.5" height="0.5" fill="#e07040cc" stroke="#a04010" stroke-width="0.5"/>
  <rect x="480.0" y="211.8" width="12.5" height="0.2" fill="#e07040cc" stroke="#a04010" stroke-width="0.5"/>
  <rect x="492.5" y="211.8" width="12.5" height="0.2" fill="#e07040cc" stroke="#a04010" stroke-width="0.5"/>
  <rect x="530.0" y="211.8" width="12.5" height="0.2" fill="#e07040cc" stroke="#a04010" stroke-width="0.5"/>
  <rect x="542.5" y="211.8" width="12.5" height="0.2" fill="#e07040cc" stroke="#a04010" stroke-width="0.5"/>
  <rect x="567.5" y="211.8" width="12.5" height="0.2" fill="#e07040cc" stroke="#a04010" stroke-width="0.5"/>
  <rect x="655.0" y="211.5" width="12.5" height="0.5" fill="#e07040cc" stroke="#a04010" stroke-width="0.5"/>
  <rect x="667.5" y="211.8" width="12.5" height="0.2" fill="#e07040cc" stroke="#a04010" stroke-width="0.5"/>
  <rect x="63" y="42" width="12" height="12" fill="#4a9eddcc"/>
  <text x="79" y="52" font-family="monospace" font-size="11" fill="#ffffffcc">uniform  mean=0.13</text>
  <rect x="63" y="60" width="12" height="12" fill="#e07040cc"/>
  <text x="79" y="70" font-family="monospace" font-size="11" fill="#ffffffcc">strava  mean=0.016</text>
  <rect x="0" y="240" width="700" height="240" fill="#1a1a2e"/>
  <text x="350" y="259" text-anchor="middle" font-family="monospace" font-size="13" font-weight="bold" fill="#ffffffcc">height  |  n=3418  |  50 bins</text>
  <rect x="55" y="278" width="625" height="174" fill="#0d0d20"/>
  <line x1="55.0" y1="278" x2="55.0" y2="452" stroke="#ffffff22" stroke-width="1"/>
  <text x="55.0" y="466" text-anchor="middle" font-family="monospace" font-size="10" fill="#ffffff88">0</text>
  <line x1="159.2" y1="278" x2="159.2" y2="452" stroke="#ffffff22" stroke-width="1"/>
  <text x="159.2" y="466" text-anchor="middle" font-family="monospace" font-size="10" fill="#ffffff88">0.047</text>
  <line x1="263.3" y1="278" x2="263.3" y2="452" stroke="#ffffff22" stroke-width="1"/>
  <text x="263.3" y="466" text-anchor="middle" font-family="monospace" font-size="10" fill="#ffffff88">0.094</text>
  <line x1="367.5" y1="278" x2="367.5" y2="452" stroke="#ffffff22" stroke-width="1"/>
  <text x="367.5" y="466" text-anchor="middle" font-family="monospace" font-size="10" fill="#ffffff88">0.14</text>
  <line x1="471.7" y1="278" x2="471.7" y2="452" stroke="#ffffff22" stroke-width="1"/>
  <text x="471.7" y="466" text-anchor="middle" font-family="monospace" font-size="10" fill="#ffffff88">0.19</text>
  <line x1="575.8" y1="278" x2="575.8" y2="452" stroke="#ffffff22" stroke-width="1"/>
  <text x="575.8" y="466" text-anchor="middle" font-family="monospace" font-size="10" fill="#ffffff88">0.23</text>
  <line x1="680.0" y1="278" x2="680.0" y2="452" stroke="#ffffff22" stroke-width="1"/>
  <text x="680.0" y="466" text-anchor="middle" font-family="monospace" font-size="10" fill="#ffffff88">0.28</text>
  <rect x="55.0" y="449.8" width="12.5" height="2.2" fill="#4a9eddcc" stroke="#2a6ea8" stroke-width="0.5"/>
  <rect x="67.5" y="439.2" width="12.5" height="12.8" fill="#4a9eddcc" stroke="#2a6ea8" stroke-width="0.5"/>
  <rect x="80.0" y="437.1" width="12.5" height="14.9" fill="#4a9eddcc" stroke="#2a6ea8" stroke-width="0.5"/>
  <rect x="92.5" y="440.3" width="12.5" height="11.7" fill="#4a9eddcc" stroke="#2a6ea8" stroke-width="0.5"/>
  <rect x="105.0" y="440.5" width="12.5" height="11.5" fill="#4a9eddcc" stroke="#2a6ea8" stroke-width="0.5"/>
  <rect x="117.5" y="436.6" width="12.5" height="15.4" fill="#4a9eddcc" stroke="#2a6ea8" stroke-width="0.5"/>
  <rect x="130.0" y="440.7" width="12.5" height="11.3" fill="#4a9eddcc" stroke="#2a6ea8" stroke-width="0.5"/>
  <rect x="142.5" y="442.3" width="12.5" height="9.7" fill="#4a9eddcc" stroke="#2a6ea8" stroke-width="0.5"/>
  <rect x="155.0" y="439.0" width="12.5" height="13.0" fill="#4a9eddcc" stroke="#2a6ea8" stroke-width="0.5"/>
  <rect x="167.5" y="440.7" width="12.5" height="11.3" fill="#4a9eddcc" stroke="#2a6ea8" stroke-width="0.5"/>
  <rect x="180.0" y="439.9" width="12.5" height="12.1" fill="#4a9eddcc" stroke="#2a6ea8" stroke-width="0.5"/>
  <rect x="192.5" y="439.2" width="12.5" height="12.8" fill="#4a9eddcc" stroke="#2a6ea8" stroke-width="0.5"/>
  <rect x="205.0" y="442.2" width="12.5" height="9.8" fill="#4a9eddcc" stroke="#2a6ea8" stroke-width="0.5"/>
  <rect x="217.5" y="438.4" width="12.5" height="13.6" fill="#4a9eddcc" stroke="#2a6ea8" stroke-width="0.5"/>
  <rect x="230.0" y="440.9" width="12.5" height="11.1" fill="#4a9eddcc" stroke="#2a6ea8" stroke-width="0.5"/>
  <rect x="242.5" y="438.3" width="12.5" height="13.7" fill="#4a9eddcc" stroke="#2a6ea8" stroke-width="0.5"/>
  <rect x="255.0" y="439.4" width="12.5" height="12.6" fill="#4a9eddcc" stroke="#2a6ea8" stroke-width="0.5"/>
  <rect x="267.5" y="436.6" width="12.5" height="15.4" fill="#4a9eddcc" stroke="#2a6ea8" stroke-width="0.5"/>
  <rect x="280.0" y="439.0" width="12.5" height="13.0" fill="#4a9eddcc" stroke="#2a6ea8" stroke-width="0.5"/>
  <rect x="292.5" y="437.7" width="12.5" height="14.3" fill="#4a9eddcc" stroke="#2a6ea8" stroke-width="0.5"/>
  <rect x="305.0" y="437.5" width="12.5" height="14.5" fill="#4a9eddcc" stroke="#2a6ea8" stroke-width="0.5"/>
  <rect x="317.5" y="439.2" width="12.5" height="12.8" fill="#4a9eddcc" stroke="#2a6ea8" stroke-width="0.5"/>
  <rect x="330.0" y="439.4" width="12.5" height="12.6" fill="#4a9eddcc" stroke="#2a6ea8" stroke-width="0.5"/>
  <rect x="342.5" y="439.7" width="12.5" height="12.3" fill="#4a9eddcc" stroke="#2a6ea8" stroke-width="0.5"/>
  <rect x="355.0" y="439.4" width="12.5" height="12.6" fill="#4a9eddcc" stroke="#2a6ea8" stroke-width="0.5"/>
  <rect x="367.5" y="438.3" width="12.5" height="13.7" fill="#4a9eddcc" stroke="#2a6ea8" stroke-width="0.5"/>
  <rect x="380.0" y="439.4" width="12.5" height="12.6" fill="#4a9eddcc" stroke="#2a6ea8" stroke-width="0.5"/>
  <rect x="392.5" y="438.3" width="12.5" height="13.7" fill="#4a9eddcc" stroke="#2a6ea8" stroke-width="0.5"/>
  <rect x="405.0" y="439.4" width="12.5" height="12.6" fill="#4a9eddcc" stroke="#2a6ea8" stroke-width="0.5"/>
  <rect x="417.5" y="437.7" width="12.5" height="14.3" fill="#4a9eddcc" stroke="#2a6ea8" stroke-width="0.5"/>
  <rect x="430.0" y="437.1" width="12.5" height="14.9" fill="#4a9eddcc" stroke="#2a6ea8" stroke-width="0.5"/>
  <rect x="442.5" y="439.0" width="12.5" height="13.0" fill="#4a9eddcc" stroke="#2a6ea8" stroke-width="0.5"/>
  <rect x="455.0" y="439.6" width="12.5" height="12.4" fill="#4a9eddcc" stroke="#2a6ea8" stroke-width="0.5"/>
  <rect x="467.5" y="436.0" width="12.5" height="16.0" fill="#4a9eddcc" stroke="#2a6ea8" stroke-width="0.5"/>
  <rect x="480.0" y="439.2" width="12.5" height="12.8" fill="#4a9eddcc" stroke="#2a6ea8" stroke-width="0.5"/>
  <rect x="492.5" y="439.2" width="12.5" height="12.8" fill="#4a9eddcc" stroke="#2a6ea8" stroke-width="0.5"/>
  <rect x="505.0" y="440.7" width="12.5" height="11.3" fill="#4a9eddcc" stroke="#2a6ea8" stroke-width="0.5"/>
  <rect x="517.5" y="440.9" width="12.5" height="11.1" fill="#4a9eddcc" stroke="#2a6ea8" stroke-width="0.5"/>
  <rect x="530.0" y="439.7" width="12.5" height="12.3" fill="#4a9eddcc" stroke="#2a6ea8" stroke-width="0.5"/>
  <rect x="542.5" y="439.4" width="12.5" height="12.6" fill="#4a9eddcc" stroke="#2a6ea8" stroke-width="0.5"/>
  <rect x="555.0" y="438.4" width="12.5" height="13.6" fill="#4a9eddcc" stroke="#2a6ea8" stroke-width="0.5"/>
  <rect x="567.5" y="438.4" width="12.5" height="13.6" fill="#4a9eddcc" stroke="#2a6ea8" stroke-width="0.5"/>
  <rect x="580.0" y="439.7" width="12.5" height="12.3" fill="#4a9eddcc" stroke="#2a6ea8" stroke-width="0.5"/>
  <rect x="592.5" y="437.9" width="12.5" height="14.1" fill="#4a9eddcc" stroke="#2a6ea8" stroke-width="0.5"/>
  <rect x="605.0" y="439.9" width="12.5" height="12.1" fill="#4a9eddcc" stroke="#2a6ea8" stroke-width="0.5"/>
  <rect x="617.5" y="439.9" width="12.5" height="12.1" fill="#4a9eddcc" stroke="#2a6ea8" stroke-width="0.5"/>
  <rect x="630.0" y="434.7" width="12.5" height="17.3" fill="#4a9eddcc" stroke="#2a6ea8" stroke-width="0.5"/>
  <rect x="642.5" y="439.4" width="12.5" height="12.6" fill="#4a9eddcc" stroke="#2a6ea8" stroke-width="0.5"/>
  <rect x="655.0" y="439.4" width="12.5" height="12.6" fill="#4a9eddcc" stroke="#2a6ea8" stroke-width="0.5"/>
  <rect x="667.5" y="440.9" width="12.5" height="11.1" fill="#4a9eddcc" stroke="#2a6ea8" stroke-width="0.5"/>
  <rect x="55.0" y="404.6" width="12.5" height="47.4" fill="#e07040cc" stroke="#a04010" stroke-width="0.5"/>
  <rect x="67.5" y="278.0" width="12.5" height="174.0" fill="#e07040cc" stroke="#a04010" stroke-width="0.5"/>
  <rect x="80.0" y="292.9" width="12.5" height="159.1" fill="#e07040cc" stroke="#a04010" stroke-width="0.5"/>
  <rect x="92.5" y="351.0" width="12.5" height="101.0" fill="#e07040cc" stroke="#a04010" stroke-width="0.5"/>
  <rect x="105.0" y="392.0" width="12.5" height="60.0" fill="#e07040cc" stroke="#a04010" stroke-width="0.5"/>
  <rect x="117.5" y="422.7" width="12.5" height="29.3" fill="#e07040cc" stroke="#a04010" stroke-width="0.5"/>
  <rect x="130.0" y="430.6" width="12.5" height="21.4" fill="#e07040cc" stroke="#a04010" stroke-width="0.5"/>
  <rect x="142.5" y="440.3" width="12.5" height="11.7" fill="#e07040cc" stroke="#a04010" stroke-width="0.5"/>
  <rect x="155.0" y="441.0" width="12.5" height="11.0" fill="#e07040cc" stroke="#a04010" stroke-width="0.5"/>
  <rect x="167.5" y="445.1" width="12.5" height="6.9" fill="#e07040cc" stroke="#a04010" stroke-width="0.5"/>
  <rect x="180.0" y="449.0" width="12.5" height="3.0" fill="#e07040cc" stroke="#a04010" stroke-width="0.5"/>
  <rect x="192.5" y="449.6" width="12.5" height="2.4" fill="#e07040cc" stroke="#a04010" stroke-width="0.5"/>
  <rect x="205.0" y="450.0" width="12.5" height="2.0" fill="#e07040cc" stroke="#a04010" stroke-width="0.5"/>
  <rect x="217.5" y="450.7" width="12.5" height="1.3" fill="#e07040cc" stroke="#a04010" stroke-width="0.5"/>
  <rect x="230.0" y="451.6" width="12.5" height="0.4" fill="#e07040cc" stroke="#a04010" stroke-width="0.5"/>
  <rect x="242.5" y="451.8" width="12.5" height="0.2" fill="#e07040cc" stroke="#a04010" stroke-width="0.5"/>
  <rect x="255.0" y="450.3" width="12.5" height="1.7" fill="#e07040cc" stroke="#a04010" stroke-width="0.5"/>
  <rect x="280.0" y="451.8" width="12.5" height="0.2" fill="#e07040cc" stroke="#a04010" stroke-width="0.5"/>
  <rect x="305.0" y="450.9" width="12.5" height="1.1" fill="#e07040cc" stroke="#a04010" stroke-width="0.5"/>
  <rect x="317.5" y="451.6" width="12.5" height="0.4" fill="#e07040cc" stroke="#a04010" stroke-width="0.5"/>
  <rect x="355.0" y="451.8" width="12.5" height="0.2" fill="#e07040cc" stroke="#a04010" stroke-width="0.5"/>
  <rect x="667.5" y="451.8" width="12.5" height="0.2" fill="#e07040cc" stroke="#a04010" stroke-width="0.5"/>
  <rect x="63" y="282" width="12" height="12" fill="#4a9eddcc"/>
  <text x="79" y="292" font-family="monospace" font-size="11" fill="#ffffffcc">uniform  mean=0.14</text>
  <rect x="63" y="300" width="12" height="12" fill="#e07040cc"/>
  <text x="79" y="310" font-family="monospace" font-size="11" fill="#ffffffcc">strava  mean=0.018</text>
  <rect x="0" y="480" width="700" height="240" fill="#1a1a2e"/>
  <text x="350" y="499" text-anchor="middle" font-family="monospace" font-size="13" font-weight="bold" fill="#ffffffcc">area  |  n=3418  |  50 bins</text>
  <rect x="55" y="518" width="625" height="174" fill="#0d0d20"/>
  <line x1="55.0" y1="518" x2="55.0" y2="692" stroke="#ffffff22" stroke-width="1"/>
  <text x="55.0" y="706" text-anchor="middle" font-family="monospace" font-size="10" fill="#ffffff88">0</text>
  <line x1="159.2" y1="518" x2="159.2" y2="692" stroke="#ffffff22" stroke-width="1"/>
  <text x="159.2" y="706" text-anchor="middle" font-family="monospace" font-size="10" fill="#ffffff88">0.012</text>
  <line x1="263.3" y1="518" x2="263.3" y2="692" stroke="#ffffff22" stroke-width="1"/>
  <text x="263.3" y="706" text-anchor="middle" font-family="monospace" font-size="10" fill="#ffffff88">0.024</text>
  <line x1="367.5" y1="518" x2="367.5" y2="692" stroke="#ffffff22" stroke-width="1"/>
  <text x="367.5" y="706" text-anchor="middle" font-family="monospace" font-size="10" fill="#ffffff88">0.036</text>
  <line x1="471.7" y1="518" x2="471.7" y2="692" stroke="#ffffff22" stroke-width="1"/>
  <text x="471.7" y="706" text-anchor="middle" font-family="monospace" font-size="10" fill="#ffffff88">0.049</text>
  <line x1="575.8" y1="518" x2="575.8" y2="692" stroke="#ffffff22" stroke-width="1"/>
  <text x="575.8" y="706" text-anchor="middle" font-family="monospace" font-size="10" fill="#ffffff88">0.061</text>
  <line x1="680.0" y1="518" x2="680.0" y2="692" stroke="#ffffff22" stroke-width="1"/>
  <text x="680.0" y="706" text-anchor="middle" font-family="monospace" font-size="10" fill="#ffffff88">0.073</text>
  <rect x="55.0" y="679.4" width="12.5" height="12.6" fill="#4a9eddcc" stroke="#2a6ea8" stroke-width="0.5"/>
  <rect x="67.5" y="679.0" width="12.5" height="13.0" fill="#4a9eddcc" stroke="#2a6ea8" stroke-width="0.5"/>
  <rect x="80.0" y="681.6" width="12.5" height="10.4" fill="#4a9eddcc" stroke="#2a6ea8" stroke-width="0.5"/>
  <rect x="92.5" y="683.0" width="12.5" height="9.0" fill="#4a9eddcc" stroke="#2a6ea8" stroke-width="0.5"/>
  <rect x="105.0" y="684.0" width="12.5" height="8.0" fill="#4a9eddcc" stroke="#2a6ea8" stroke-width="0.5"/>
  <rect x="117.5" y="683.4" width="12.5" height="8.6" fill="#4a9eddcc" stroke="#2a6ea8" stroke-width="0.5"/>
  <rect x="130.0" y="683.6" width="12.5" height="8.4" fill="#4a9eddcc" stroke="#2a6ea8" stroke-width="0.5"/>
  <rect x="142.5" y="684.9" width="12.5" height="7.1" fill="#4a9eddcc" stroke="#2a6ea8" stroke-width="0.5"/>
  <rect x="155.0" y="685.0" width="12.5" height="7.0" fill="#4a9eddcc" stroke="#2a6ea8" stroke-width="0.5"/>
  <rect x="167.5" y="686.3" width="12.5" height="5.7" fill="#4a9eddcc" stroke="#2a6ea8" stroke-width="0.5"/>
  <rect x="180.0" y="686.4" width="12.5" height="5.6" fill="#4a9eddcc" stroke="#2a6ea8" stroke-width="0.5"/>
  <rect x="192.5" y="686.3" width="12.5" height="5.7" fill="#4a9eddcc" stroke="#2a6ea8" stroke-width="0.5"/>
  <rect x="205.0" y="686.4" width="12.5" height="5.6" fill="#4a9eddcc" stroke="#2a6ea8" stroke-width="0.5"/>
  <rect x="217.5" y="686.9" width="12.5" height="5.1" fill="#4a9eddcc" stroke="#2a6ea8" stroke-width="0.5"/>
  <rect x="230.0" y="687.3" width="12.5" height="4.7" fill="#4a9eddcc" stroke="#2a6ea8" stroke-width="0.5"/>
  <rect x="242.5" y="686.6" width="12.5" height="5.4" fill="#4a9eddcc" stroke="#2a6ea8" stroke-width="0.5"/>
  <rect x="255.0" y="687.5" width="12.5" height="4.5" fill="#4a9eddcc" stroke="#2a6ea8" stroke-width="0.5"/>
  <rect x="267.5" y="688.3" width="12.5" height="3.7" fill="#4a9eddcc" stroke="#2a6ea8" stroke-width="0.5"/>
  <rect x="280.0" y="689.2" width="12.5" height="2.8" fill="#4a9eddcc" stroke="#2a6ea8" stroke-width="0.5"/>
  <rect x="292.5" y="688.3" width="12.5" height="3.7" fill="#4a9eddcc" stroke="#2a6ea8" stroke-width="0.5"/>
  <rect x="305.0" y="688.2" width="12.5" height="3.8" fill="#4a9eddcc" stroke="#2a6ea8" stroke-width="0.5"/>
  <rect x="317.5" y="689.1" width="12.5" height="2.9" fill="#4a9eddcc" stroke="#2a6ea8" stroke-width="0.5"/>
  <rect x="330.0" y="688.7" width="12.5" height="3.3" fill="#4a9eddcc" stroke="#2a6ea8" stroke-width="0.5"/>
  <rect x="342.5" y="689.1" width="12.5" height="2.9" fill="#4a9eddcc" stroke="#2a6ea8" stroke-width="0.5"/>
  <rect x="355.0" y="688.7" width="12.5" height="3.3" fill="#4a9eddcc" stroke="#2a6ea8" stroke-width="0.5"/>
  <rect x="367.5" y="689.3" width="12.5" height="2.7" fill="#4a9eddcc" stroke="#2a6ea8" stroke-width="0.5"/>
  <rect x="380.0" y="689.7" width="12.5" height="2.3" fill="#4a9eddcc" stroke="#2a6ea8" stroke-width="0.5"/>
  <rect x="392.5" y="689.9" width="12.5" height="2.1" fill="#4a9eddcc" stroke="#2a6ea8" stroke-width="0.5"/>
  <rect x="405.0" y="690.1" width="12.5" height="1.9" fill="#4a9eddcc" stroke="#2a6ea8" stroke-width="0.5"/>
  <rect x="417.5" y="690.0" width="12.5" height="2.0" fill="#4a9eddcc" stroke="#2a6ea8" stroke-width="0.5"/>
  <rect x="430.0" y="689.9" width="12.5" height="2.1" fill="#4a9eddcc" stroke="#2a6ea8" stroke-width="0.5"/>
  <rect x="442.5" y="690.3" width="12.5" height="1.7" fill="#4a9eddcc" stroke="#2a6ea8" stroke-width="0.5"/>
  <rect x="455.0" y="690.5" width="12.5" height="1.5" fill="#4a9eddcc" stroke="#2a6ea8" stroke-width="0.5"/>
  <rect x="467.5" y="690.2" width="12.5" height="1.8" fill="#4a9eddcc" stroke="#2a6ea8" stroke-width="0.5"/>
  <rect x="480.0" y="690.5" width="12.5" height="1.5" fill="#4a9eddcc" stroke="#2a6ea8" stroke-width="0.5"/>
  <rect x="492.5" y="690.6" width="12.5" height="1.4" fill="#4a9eddcc" stroke="#2a6ea8" stroke-width="0.5"/>
  <rect x="505.0" y="690.9" width="12.5" height="1.1" fill="#4a9eddcc" stroke="#2a6ea8" stroke-width="0.5"/>
  <rect x="517.5" y="691.0" width="12.5" height="1.0" fill="#4a9eddcc" stroke="#2a6ea8" stroke-width="0.5"/>
  <rect x="530.0" y="690.8" width="12.5" height="1.2" fill="#4a9eddcc" stroke="#2a6ea8" stroke-width="0.5"/>
  <rect x="542.5" y="691.4" width="12.5" height="0.6" fill="#4a9eddcc" stroke="#2a6ea8" stroke-width="0.5"/>
  <rect x="555.0" y="691.4" width="12.5" height="0.6" fill="#4a9eddcc" stroke="#2a6ea8" stroke-width="0.5"/>
  <rect x="567.5" y="691.1" width="12.5" height="0.9" fill="#4a9eddcc" stroke="#2a6ea8" stroke-width="0.5"/>
  <rect x="580.0" y="691.2" width="12.5" height="0.8" fill="#4a9eddcc" stroke="#2a6ea8" stroke-width="0.5"/>
  <rect x="592.5" y="691.2" width="12.5" height="0.8" fill="#4a9eddcc" stroke="#2a6ea8" stroke-width="0.5"/>
  <rect x="605.0" y="691.4" width="12.5" height="0.6" fill="#4a9eddcc" stroke="#2a6ea8" stroke-width="0.5"/>
  <rect x="617.5" y="691.8" width="12.5" height="0.2" fill="#4a9eddcc" stroke="#2a6ea8" stroke-width="0.5"/>
  <rect x="630.0" y="691.6" width="12.5" height="0.4" fill="#4a9eddcc" stroke="#2a6ea8" stroke-width="0.5"/>
  <rect x="642.5" y="691.8" width="12.5" height="0.2" fill="#4a9eddcc" stroke="#2a6ea8" stroke-width="0.5"/>
  <rect x="655.0" y="691.9" width="12.5" height="0.1" fill="#4a9eddcc" stroke="#2a6ea8" stroke-width="0.5"/>
  <rect x="667.5" y="691.9" width="12.5" height="0.1" fill="#4a9eddcc" stroke="#2a6ea8" stroke-width="0.5"/>
  <rect x="55.0" y="518.0" width="12.5" height="174.0" fill="#e07040cc" stroke="#a04010" stroke-width="0.5"/>
  <rect x="67.5" y="686.7" width="12.5" height="5.3" fill="#e07040cc" stroke="#a04010" stroke-width="0.5"/>
  <rect x="80.0" y="691.2" width="12.5" height="0.8" fill="#e07040cc" stroke="#a04010" stroke-width="0.5"/>
  <rect x="92.5" y="691.4" width="12.5" height="0.6" fill="#e07040cc" stroke="#a04010" stroke-width="0.5"/>
  <rect x="105.0" y="691.5" width="12.5" height="0.5" fill="#e07040cc" stroke="#a04010" stroke-width="0.5"/>
  <rect x="117.5" y="691.9" width="12.5" height="0.1" fill="#e07040cc" stroke="#a04010" stroke-width="0.5"/>
  <rect x="130.0" y="691.9" width="12.5" height="0.1" fill="#e07040cc" stroke="#a04010" stroke-width="0.5"/>
  <rect x="142.5" y="691.9" width="12.5" height="0.1" fill="#e07040cc" stroke="#a04010" stroke-width="0.5"/>
  <rect x="155.0" y="691.8" width="12.5" height="0.2" fill="#e07040cc" stroke="#a04010" stroke-width="0.5"/>
  <rect x="167.5" y="691.9" width="12.5" height="0.1" fill="#e07040cc" stroke="#a04010" stroke-width="0.5"/>
  <rect x="180.0" y="691.9" width="12.5" height="0.1" fill="#e07040cc" stroke="#a04010" stroke-width="0.5"/>
  <rect x="242.5" y="691.8" width="12.5" height="0.2" fill="#e07040cc" stroke="#a04010" stroke-width="0.5"/>
  <rect x="255.0" y="691.9" width="12.5" height="0.1" fill="#e07040cc" stroke="#a04010" stroke-width="0.5"/>
  <rect x="667.5" y="691.9" width="12.5" height="0.1" fill="#e07040cc" stroke="#a04010" stroke-width="0.5"/>
  <rect x="63" y="522" width="12" height="12" fill="#4a9eddcc"/>
  <text x="79" y="532" font-family="monospace" font-size="11" fill="#ffffffcc">uniform  mean=0.019</text>
  <rect x="63" y="540" width="12" height="12" fill="#e07040cc"/>
  <text x="79" y="550" font-family="monospace" font-size="11" fill="#ffffffcc">strava  mean=0.0004</text>
  <line x1="0" y1="240" x2="700" y2="240" stroke="#ffffff44" stroke-width="1"/>
  <line x1="0" y1="480" x2="700" y2="480" stroke="#ffffff44" stroke-width="1"/>
</svg>