<svg xmlns="http://www.w3.org/2000/svg" width="700" height="240">
  <rect width="100%" height="100%" fill="#0e0e1a"/>
  <rect x="0" y="0" width="700" height="240" fill="#1a1a2e"/>
  <text x="350" y="19" text-anchor="middle" font-family="monospace" font-size="13" font-weight="bold" fill="#ffffffcc">strava sample  n=20  |  100 seeds  |  gap=0.001  ar=1.0</text>
  <rect x="50" y="38" width="630" height="174" fill="#0d0d20"/>
  <line x1="50.0" y1="38" x2="50.0" y2="212" stroke="#ffffff22" stroke-width="1"/>
  <text x="50.0" y="226" text-anchor="middle" font-family="monospace" font-size="11" fill="#ffffff88">20%</text>
  <line x1="126.8" y1="38" x2="126.8" y2="212" stroke="#ffffff22" stroke-width="1"/>
  <text x="126.8" y="226" text-anchor="middle" font-family="monospace" font-size="11" fill="#ffffff88">30%</text>
  <line x1="203.7" y1="38" x2="203.7" y2="212" stroke="#ffffff22" stroke-width="1"/>
  <text x="203.7" y="226" text-anchor="middle" font-family="monospace" font-size="11" fill="#ffffff88">40%</text>
  <line x1="280.5" y1="38" x2="280.5" y2="212" stroke="#ffffff22" stroke-width="1"/>
  <text x="280.5" y="226" text-anchor="middle" font-family="monospace" font-size="11" fill="#ffffff88">50%</text>
  <line x1="357.3" y1="38" x2="357.3" y2="212" stroke="#ffffff22" stroke-width="1"/>
  <text x="357.3" y="226" text-anchor="middle" font-family="monospace" font-size="11" fill="#ffffff88">60%</text>
  <line x1="434.1" y1="38" x2="434.1" y2="212" stroke="#ffffff22" stroke-width="1"/>
  <text x="434.1" y="226" text-anchor="middle" font-family="monospace" font-size="11" fill="#ffffff88">70%</text>
  <line x1="511.0" y1="38" x2="511.0" y2="212" stroke="#ffffff22" stroke-width="1"/>
  <text x="511.0" y="226" text-anchor="middle" font-family="monospace" font-size="11" fill="#ffffff88">80%</text>
  <line x1="587.8" y1="38" x2="587.8" y2="212" stroke="#ffffff22" stroke-width="1"/>
  <text x="587.8" y="226" text-anchor="middle" font-family="monospace" font-size="11" fill="#ffffff88">90%</text>
  <line x1="664.6" y1="38" x2="664.6" y2="212" stroke="#ffffff22" stroke-width="1"/>
  <text x="664.6" y="226" text-anchor="middle" font-family="monospace" font-size="11" fill="#ffffff88">100%</text>
  <rect x="203.7" y="202.3" width="15.4" height="9.7" fill="#4a9eddcc" stroke="#2a6ea8" stroke-width="0.5"/>
  <rect x="234.4" y="202.3" width="15.4" height="9.7" fill="#4a9eddcc" stroke="#2a6ea8" stroke-width="0.5"/>
  <rect x="265.1" y="202.3" width="15.4" height="9.7" fill="#4a9eddcc" stroke="#2a6ea8" stroke-width="0.5"/>
  <rect x="280.5" y="202.3" width="15.4" height="9.7" fill="#4a9eddcc" stroke="#2a6ea8" stroke-width="0.5"/>
  <rect x="295.9" y="192.7" width="15.4" height="19.3" fill="#4a9eddcc" stroke="#2a6ea8" stroke-width="0.5"/>
  <rect x="311.2" y="202.3" width="15.4" height="9.7" fill="#4a9eddcc" stroke="#2a6ea8" stroke-width="0.5"/>
  <rect x="326.6" y="192.7" width="15.4" height="19.3" fill="#4a9eddcc" stroke="#2a6ea8" stroke-width="0.5"/>
  <rect x="372.7" y="202.3" width="15.4" height="9.7" fill="#4a9eddcc" stroke="#2a6ea8" stroke-width="0.5"/>
  <rect x="388.0" y="202.3" width="15.4" height="9.7" fill="#4a9eddcc" stroke="#2a6ea8" stroke-width="0.5"/>
  <rect x="403.4" y="183.0" width="15.4" height="29.0" fill="#4a9eddcc" stroke="#2a6ea8" stroke-width="0.5"/>
  <rect x="418.8" y="163.7" width="15.4" height="48.3" fill="#4a9eddcc" stroke="#2a6ea8" stroke-width="0.5"/>
  <rect x="434.1" y="192.7" width="15.4" height="19.3" fill="#4a9eddcc" stroke="#2a6ea8" stroke-width="0.5"/>
  <rect x="449.5" y="134.7" width="15.4" height="77.3" fill="#4a9eddcc" stroke="#2a6ea8" stroke-width="0.5"/>
  <rect x="464.9" y="67.0" width="15.4" height="145.0" fill="#4a9eddcc" stroke="#2a6ea8" stroke-width="0.5"/>
  <rect x="480.2" y="105.7" width="15.4" height="106.3" fill="#4a9eddcc" stroke="#2a6ea8" stroke-width="0.5"/>
  <rect x="495.6" y="76.7" width="15.4" height="135.3" fill="#4a9eddcc" stroke="#2a6ea8" stroke-width="0.5"/>
  <rect x="511.0" y="76.7" width="15.4" height="135.3" fill="#4a9eddcc" stroke="#2a6ea8" stroke-width="0.5"/>
  <rect x="526.3" y="125.0" width="15.4" height="87.0" fill="#4a9eddcc" stroke="#2a6ea8" stroke-width="0.5"/>
  <rect x="541.7" y="144.3" width="15.4" height="67.7" fill="#4a9eddcc" stroke="#2a6ea8" stroke-width="0.5"/>
  <rect x="587.8" y="202.3" width="15.4" height="9.7" fill="#4a9eddcc" stroke="#2a6ea8" stroke-width="0.5"/>
  <rect x="111.5" y="202.3" width="15.4" height="9.7" fill="#e07040cc" stroke="#a04010" stroke-width="0.5"/>
  <rect x="126.8" y="163.7" width="15.4" height="48.3" fill="#e07040cc" stroke="#a04010" stroke-width="0.5"/>
  <rect x="157.6" y="183.0" width="15.4" height="29.0" fill="#e07040cc" stroke="#a04010" stroke-width="0.5"/>
  <rect x="172.9" y="154.0" width="15.4" height="58.0" fill="#e07040cc" stroke="#a04010" stroke-width="0.5"/>
  <rect x="188.3" y="183.0" width="15.4" height="29.0" fill="#e07040cc" stroke="#a04010" stroke-width="0.5"/>
  <rect x="203.7" y="134.7" width="15.4" height="77.3" fill="#e07040cc" stroke="#a04010" stroke-width="0.5"/>
  <rect x="219.0" y="125.0" width="15.4" height="87.0" fill="#e07040cc" stroke="#a04010" stroke-width="0.5"/>
  <rect x="234.4" y="38.0" width="15.4" height="174.0" fill="#e07040cc" stroke="#a04010" stroke-width="0.5"/>
  <rect x="249.8" y="134.7" width="15.4" height="77.3" fill="#e07040cc" stroke="#a04010" stroke-width="0.5"/>
  <rect x="265.1" y="173.3" width="15.4" height="38.7" fill="#e07040cc" stroke="#a04010" stroke-width="0.5"/>
  <rect x="280.5" y="115.3" width="15.4" height="96.7" fill="#e07040cc" stroke="#a04010" stroke-width="0.5"/>
  <rect x="295.9" y="183.0" width="15.4" height="29.0" fill="#e07040cc" stroke="#a04010" stroke-width="0.5"/>
  <rect x="311.2" y="163.7" width="15.4" height="48.3" fill="#e07040cc" stroke="#a04010" stroke-width="0.5"/>
  <rect x="326.6" y="183.0" width="15.4" height="29.0" fill="#e07040cc" stroke="#a04010" stroke-width="0.5"/>
  <rect x="342.0" y="192.7" width="15.4" height="19.3" fill="#e07040cc" stroke="#a04010" stroke-width="0.5"/>
  <rect x="357.3" y="173.3" width="15.4" height="38.7" fill="#e07040cc" stroke="#a04010" stroke-width="0.5"/>
  <rect x="372.7" y="183.0" width="15.4" height="29.0" fill="#e07040cc" stroke="#a04010" stroke-width="0.5"/>
  <rect x="388.0" y="202.3" width="15.4" height="9.7" fill="#e07040cc" stroke="#a04010" stroke-width="0.5"/>
  <rect x="418.8" y="192.7" width="15.4" height="19.3" fill="#e07040cc" stroke="#a04010" stroke-width="0.5"/>
  <rect x="434.1" y="192.7" width="15.4" height="19.3" fill="#e07040cc" stroke="#a04010" stroke-width="0.5"/>
  <rect x="58" y="42" width="12" height="12" fill="#4a9eddcc"/>
  <text x="74" y="52" font-family="monospace" font-size="11" fill="#ffffffcc">glacier  mean 75.1%</text>
  <rect x="58" y="60" width="12" height="12" fill="#e07040cc"/>
  <text x="74" y="70" font-family="monospace" font-size="11" fill="#ffffffcc">force  mean 47.3%</text>
</svg>