<svg xmlns="http://www.w3.org/2000/svg" width="2520" height="494">
  <rect width="100%" height="100%" fill="#0e0e1a"/>
  <g transform="translate(0,0)">
    <svg width="420" height="470">
  <rect width="100%" height="100%" fill="#1a1a2e"/>
  <text x="210.0" y="16" text-anchor="middle" font-family="monospace" font-size="12" font-weight="bold" fill="#ffffffcc">glacier|n=20|eg=0.001|gap=0.001,0.001|ar=1.000</text>
  <text x="210.0" y="32" text-anchor="middle" font-family="monospace" font-size="12" fill="#ffffffaa">n=20 seed=63 40.5%|0.7ms</text>
  <rect x="20" y="64" width="380.0" height="380.0" fill="#cccccc" stroke="none"/>
  <rect x="103.32" y="277.78" width="28.72" height="62.24" fill="#5f76dd" stroke="#1a1a2e" stroke-width="0.8" rx="1"/>
  <rect x="82.18" y="297.16" width="6.88" height="42.86" fill="#5f62dd" stroke="#1a1a2e" stroke-width="0.8" rx="1"/>
  <rect x="41.22" y="304.14" width="8.73" height="35.88" fill="#5f62dd" stroke="#1a1a2e" stroke-width="0.8" rx="1"/>
  <rect x="231.80" y="296.32" width="26.74" height="43.70" fill="#5f6edd" stroke="#1a1a2e" stroke-width="0.8" rx="1"/>
  <rect x="394.42" y="330.57" width="2.52" height="9.44" fill="#5f5fdd" stroke="#1a1a2e" stroke-width="0.8" rx="1"/>
  <rect x="231.80" y="273.77" width="17.97" height="20.81" fill="#000000" stroke="#1a1a2e" stroke-width="0.8" rx="1"/>
  <rect x="133.79" y="271.68" width="40.70" height="68.34" fill="#5f83dd" stroke="#1a1a2e" stroke-width="0.8" rx="1"/>
  <rect x="34.32" y="277.34" width="20.25" height="23.63" fill="#000000" stroke="#1a1a2e" stroke-width="0.8" rx="1"/>
  <rect x="51.70" y="302.72" width="28.73" height="37.30" fill="#5f6cdd" stroke="#1a1a2e" stroke-width="0.8" rx="1"/>
  <rect x="291.30" y="302.99" width="37.02" height="37.02" fill="#5f70dd" stroke="#1a1a2e" stroke-width="0.8" rx="1"/>
  <rect x="21.75" y="167.98" width="376.50" height="101.95" fill="#dd5f5f" stroke="#1a1a2e" stroke-width="0.8" rx="1"/>
  <rect x="343.58" y="312.91" width="49.09" height="27.10" fill="#5f70dd" stroke="#1a1a2e" stroke-width="0.8" rx="1"/>
  <rect x="23.06" y="313.35" width="4.15" height="26.67" fill="#5f60dd" stroke="#1a1a2e" stroke-width="0.8" rx="1"/>
  <rect x="260.29" y="302.45" width="29.27" height="37.57" fill="#5f6ddd" stroke="#1a1a2e" stroke-width="0.8" rx="1"/>
  <rect x="330.07" y="307.89" width="11.77" height="32.13" fill="#5f63dd" stroke="#1a1a2e" stroke-width="0.8" rx="1"/>
  <rect x="24.86" y="297.08" width="7.72" height="9.61" fill="#000000" stroke="#1a1a2e" stroke-width="0.8" rx="1"/>
  <rect x="56.31" y="274.98" width="24.12" height="26.00" fill="#000000" stroke="#1a1a2e" stroke-width="0.8" rx="1"/>
  <rect x="176.23" y="282.13" width="53.83" height="57.89" fill="#5f87dd" stroke="#1a1a2e" stroke-width="0.8" rx="1"/>
  <rect x="28.96" y="308.44" width="10.51" height="31.58" fill="#5f63dd" stroke="#1a1a2e" stroke-width="0.8" rx="1"/>
  <rect x="90.80" y="287.33" width="10.78" height="52.69" fill="#5f66dd" stroke="#1a1a2e" stroke-width="0.8" rx="1"/>
    </svg>
  </g>
  <g transform="translate(420,0)">
    <svg width="420" height="470">
  <rect width="100%" height="100%" fill="#1a1a2e"/>
  <text x="210.0" y="16" text-anchor="middle" font-family="monospace" font-size="12" font-weight="bold" fill="#ffffffcc">glacier|n=20|eg=0.001|gap=0.001,0.001|ar=1.000</text>
  <text x="210.0" y="32" text-anchor="middle" font-family="monospace" font-size="12" fill="#ffffffaa">n=20 seed=31 77.0%|1.0ms</text>
  <rect x="20" y="64" width="380.0" height="380.0" fill="#cccccc" stroke="none"/>
  <rect x="175.00" y="389.49" width="75.33" height="27.93" fill="#5f97dd" stroke="#1a1a2e" stroke-width="0.8" rx="1"/>
  <rect x="219.43" y="323.99" width="54.24" height="61.59" fill="#5fb8dd" stroke="#1a1a2e" stroke-width="0.8" rx="1"/>
  <rect x="254.23" y="392.51" width="16.89" height="24.90" fill="#5f6add" stroke="#1a1a2e" stroke-width="0.8" rx="1"/>
  <rect x="275.02" y="398.68" width="75.20" height="18.74" fill="#5f84dd" stroke="#1a1a2e" stroke-width="0.8" rx="1"/>
  <rect x="29.12" y="341.16" width="41.56" height="44.43" fill="#5f90dd" stroke="#1a1a2e" stroke-width="0.8" rx="1"/>
  <rect x="340.96" y="228.49" width="55.12" height="91.60" fill="#5fddd4" stroke="#1a1a2e" stroke-width="0.8" rx="1"/>
  <rect x="277.58" y="328.60" width="55.43" height="56.98" fill="#5fb3dd" stroke="#1a1a2e" stroke-width="0.8" rx="1"/>
  <rect x="74.58" y="328.82" width="72.48" height="56.77" fill="#5fccdd" stroke="#1a1a2e" stroke-width="0.8" rx="1"/>
  <rect x="271.42" y="187.00" width="65.65" height="133.09" fill="#5fdd71" stroke="#1a1a2e" stroke-width="0.8" rx="1"/>
  <rect x="26.39" y="91.99" width="114.46" height="92.33" fill="#000000" stroke="#1a1a2e" stroke-width="0.8" rx="1"/>
  <rect x="150.96" y="326.49" width="64.58" height="59.09" fill="#5fc4dd" stroke="#1a1a2e" stroke-width="0.8" rx="1"/>
  <rect x="144.75" y="123.15" width="36.79" height="196.94" fill="#5fdd99" stroke="#1a1a2e" stroke-width="0.8" rx="1"/>
  <rect x="69.79" y="398.17" width="54.96" height="19.25" fill="#5f7bdd" stroke="#1a1a2e" stroke-width="0.8" rx="1"/>
  <rect x="23.92" y="188.22" width="116.94" height="131.88" fill="#ddba5f" stroke="#1a1a2e" stroke-width="0.8" rx="1"/>
  <rect x="185.44" y="90.58" width="82.08" height="229.51" fill="#dd5f5f" stroke="#1a1a2e" stroke-width="0.8" rx="1"/>
  <rect x="341.38" y="142.16" width="44.29" height="82.43" fill="#000000" stroke="#1a1a2e" stroke-width="0.8" rx="1"/>
  <rect x="389.56" y="221.23" width="3.04" height="3.36" fill="#000000" stroke="#1a1a2e" stroke-width="0.8" rx="1"/>
  <rect x="128.64" y="391.49" width="42.45" height="25.92" fill="#5f7cdd" stroke="#1a1a2e" stroke-width="0.8" rx="1"/>
  <rect x="336.91" y="331.62" width="53.97" height="53.97" fill="#5facdd" stroke="#1a1a2e" stroke-width="0.8" rx="1"/>
  <rect x="271.42" y="98.24" width="66.06" height="84.86" fill="#000000" stroke="#1a1a2e" stroke-width="0.8" rx="1"/>
    </svg>
  </g>
  <g transform="translate(840,0)">
    <svg width="420" height="470">
  <rect width="100%" height="100%" fill="#1a1a2e"/>
  <text x="210.0" y="16" text-anchor="middle" font-family="monospace" font-size="12" font-weight="bold" fill="#ffffffcc">glacier|n=20|eg=0.001|gap=0.001,0.001|ar=1.000</text>
  <text x="210.0" y="32" text-anchor="middle" font-family="monospace" font-size="12" fill="#ffffffaa">n=20 seed=74 90.9%|1.0ms</text>
  <rect x="20" y="64" width="380.0" height="380.0" fill="#cccccc" stroke="none"/>
  <rect x="26.21" y="362.47" width="19.81" height="27.91" fill="#000000" stroke="#1a1a2e" stroke-width="0.8" rx="1"/>
  <rect x="115.12" y="316.85" width="54.69" height="46.27" fill="#000000" stroke="#1a1a2e" stroke-width="0.8" rx="1"/>
  <rect x="42.72" y="71.59" width="19.43" height="20.99" fill="#000000" stroke="#1a1a2e" stroke-width="0.8" rx="1"/>
  <rect x="30.42" y="76.98" width="9.89" height="15.60" fill="#000000" stroke="#1a1a2e" stroke-width="0.8" rx="1"/>
  <rect x="79.24" y="332.41" width="33.46" height="46.88" fill="#000000" stroke="#1a1a2e" stroke-width="0.8" rx="1"/>
  <rect x="321.10" y="356.04" width="26.07" height="12.17" fill="#000000" stroke="#1a1a2e" stroke-width="0.8" rx="1"/>
  <rect x="172.22" y="315.24" width="127.48" height="125.11" fill="#5fc0dd" stroke="#1a1a2e" stroke-width="0.8" rx="1"/>
  <rect x="64.56" y="67.65" width="333.02" height="245.18" fill="#dd5f5f" stroke="#1a1a2e" stroke-width="0.8" rx="1"/>
  <rect x="23.05" y="405.35" width="11.28" height="35.01" fill="#5f60dd" stroke="#1a1a2e" stroke-width="0.8" rx="1"/>
  <rect x="22.42" y="94.99" width="39.73" height="217.84" fill="#5f93dd" stroke="#1a1a2e" stroke-width="0.8" rx="1"/>
  <rect x="61.30" y="389.35" width="33.17" height="51.00" fill="#5f68dd" stroke="#1a1a2e" stroke-width="0.8" rx="1"/>
  <rect x="302.11" y="341.72" width="16.58" height="26.49" fill="#000000" stroke="#1a1a2e" stroke-width="0.8" rx="1"/>
  <rect x="344.39" y="389.82" width="41.23" height="50.53" fill="#5f6bdd" stroke="#1a1a2e" stroke-width="0.8" rx="1"/>
  <rect x="36.75" y="392.80" width="22.14" height="47.55" fill="#5f64dd" stroke="#1a1a2e" stroke-width="0.8" rx="1"/>
  <rect x="302.11" y="370.62" width="20.33" height="69.73" fill="#5f66dd" stroke="#1a1a2e" stroke-width="0.8" rx="1"/>
  <rect x="132.66" y="365.54" width="37.15" height="74.81" fill="#5f6fdd" stroke="#1a1a2e" stroke-width="0.8" rx="1"/>
  <rect x="388.03" y="402.64" width="8.91" height="37.71" fill="#5f60dd" stroke="#1a1a2e" stroke-width="0.8" rx="1"/>
  <rect x="96.88" y="381.70" width="33.37" height="58.65" fill="#5f6add" stroke="#1a1a2e" stroke-width="0.8" rx="1"/>
  <rect x="324.86" y="388.60" width="17.11" height="51.76" fill="#5f63dd" stroke="#1a1a2e" stroke-width="0.8" rx="1"/>
  <rect x="48.43" y="354.17" width="28.40" height="32.77" fill="#000000" stroke="#1a1a2e" stroke-width="0.8" rx="1"/>
    </svg>
  </g>
  <g transform="translate(1260,0)">
    <svg width="420" height="470">
  <rect width="100%" height="100%" fill="#1a1a2e"/>
  <text x="210.0" y="16" text-anchor="middle" font-family="monospace" font-size="12" font-weight="bold" fill="#ffffffcc">force|n=20|eg=0.001|gap=0.001,0.001|ar=1.000</text>
  <text x="210.0" y="32" text-anchor="middle" font-family="monospace" font-size="12" fill="#ffffffaa">n=20 seed=23 28.5%|29.0ms</text>
  <rect x="20" y="64" width="380.0" height="380.0" fill="#cccccc" stroke="none"/>
  <rect x="228.51" y="228.77" width="62.41" height="26.38" fill="#5fdcdd" stroke="#1a1a2e" stroke-width="0.8" rx="1"/>
  <rect x="388.43" y="188.26" width="7.22" height="10.10" fill="#5f5fdd" stroke="#1a1a2e" stroke-width="0.8" rx="1"/>
  <rect x="316.89" y="156.81" width="69.04" height="73.00" fill="#ddc95f" stroke="#1a1a2e" stroke-width="0.8" rx="1"/>
  <rect x="35.71" y="175.19" width="34.97" height="80.71" fill="#5fdd7f" stroke="#1a1a2e" stroke-width="0.8" rx="1"/>
  <rect x="166.63" y="282.76" width="26.12" height="34.25" fill="#5fa0dd" stroke="#1a1a2e" stroke-width="0.8" rx="1"/>
  <rect x="156.71" y="122.15" width="25.13" height="29.89" fill="#5f95dd" stroke="#1a1a2e" stroke-width="0.8" rx="1"/>
  <rect x="185.35" y="234.54" width="40.42" height="45.42" fill="#5fddce" stroke="#1a1a2e" stroke-width="0.8" rx="1"/>
  <rect x="72.83" y="113.56" width="19.61" height="159.50" fill="#5fdd66" stroke="#1a1a2e" stroke-width="0.8" rx="1"/>
  <rect x="132.64" y="200.80" width="37.40" height="55.68" fill="#5fddba" stroke="#1a1a2e" stroke-width="0.8" rx="1"/>
  <rect x="171.58" y="200.80" width="11.07" height="35.01" fill="#5f78dd" stroke="#1a1a2e" stroke-width="0.8" rx="1"/>
  <rect x="129.57" y="151.97" width="24.25" height="30.88" fill="#5f95dd" stroke="#1a1a2e" stroke-width="0.8" rx="1"/>
  <rect x="184.73" y="127.16" width="8.47" height="24.87" fill="#5f6add" stroke="#1a1a2e" stroke-width="0.8" rx="1"/>
  <rect x="24.35" y="171.32" width="8.46" height="48.32" fill="#5f79dd" stroke="#1a1a2e" stroke-width="0.8" rx="1"/>
  <rect x="94.45" y="185.74" width="35.30" height="66.93" fill="#5fdda4" stroke="#1a1a2e" stroke-width="0.8" rx="1"/>
  <rect x="224.81" y="154.81" width="89.70" height="71.07" fill="#dd5f5f" stroke="#1a1a2e" stroke-width="0.8" rx="1"/>
  <rect x="156.75" y="154.81" width="50.21" height="43.00" fill="#5fddb4" stroke="#1a1a2e" stroke-width="0.8" rx="1"/>
  <rect x="185.04" y="200.71" width="36.88" height="31.04" fill="#5fb4dd" stroke="#1a1a2e" stroke-width="0.8" rx="1"/>
  <rect x="196.09" y="88.62" width="34.79" height="63.30" fill="#5fddb0" stroke="#1a1a2e" stroke-width="0.8" rx="1"/>
  <rect x="160.05" y="68.35" width="33.12" height="50.90" fill="#5fddda" stroke="#1a1a2e" stroke-width="0.8" rx="1"/>
  <rect x="41.04" y="165.50" width="28.90" height="6.79" fill="#5f68dd" stroke="#1a1a2e" stroke-width="0.8" rx="1"/>
    </svg>
  </g>
  <g transform="translate(1680,0)">
    <svg width="420" height="470">
  <rect width="100%" height="100%" fill="#1a1a2e"/>
  <text x="210.0" y="16" text-anchor="middle" font-family="monospace" font-size="12" font-weight="bold" fill="#ffffffcc">force|n=20|eg=0.001|gap=0.001,0.001|ar=1.000</text>
  <text x="210.0" y="32" text-anchor="middle" font-family="monospace" font-size="12" fill="#ffffffaa">n=20 seed=89 45.9%|28.9ms</text>
  <rect x="20" y="64" width="380.0" height="380.0" fill="#cccccc" stroke="none"/>
  <rect x="74.29" y="196.89" width="29.40" height="75.35" fill="#5faedd" stroke="#1a1a2e" stroke-width="0.8" rx="1"/>
  <rect x="187.36" y="68.46" width="42.14" height="103.88" fill="#5fddbd" stroke="#1a1a2e" stroke-width="0.8" rx="1"/>
  <rect x="276.18" y="296.90" width="4.12" height="4.12" fill="#5f5fdd" stroke="#1a1a2e" stroke-width="0.8" rx="1"/>
  <rect x="24.46" y="252.35" width="34.55" height="40.38" fill="#5f91dd" stroke="#1a1a2e" stroke-width="0.8" rx="1"/>
  <rect x="254.47" y="320.94" width="49.88" height="101.86" fill="#5fdda4" stroke="#1a1a2e" stroke-width="0.8" rx="1"/>
  <rect x="113.26" y="144.93" width="27.44" height="27.44" fill="#5f7add" stroke="#1a1a2e" stroke-width="0.8" rx="1"/>
  <rect x="178.22" y="342.23" width="47.99" height="97.30" fill="#5fddb3" stroke="#1a1a2e" stroke-width="0.8" rx="1"/>
  <rect x="276.10" y="189.38" width="34.30" height="34.30" fill="#5f89dd" stroke="#1a1a2e" stroke-width="0.8" rx="1"/>
  <rect x="143.67" y="109.83" width="40.75" height="62.58" fill="#5fbadd" stroke="#1a1a2e" stroke-width="0.8" rx="1"/>
  <rect x="232.46" y="119.24" width="45.82" height="48.60" fill="#5fafdd" stroke="#1a1a2e" stroke-width="0.8" rx="1"/>
  <rect x="70.76" y="252.44" width="0.66" height="1.66" fill="#5f5fdd" stroke="#1a1a2e" stroke-width="0.8" rx="1"/>
  <rect x="276.01" y="248.80" width="56.75" height="45.14" fill="#5fbbdd" stroke="#1a1a2e" stroke-width="0.8" rx="1"/>
  <rect x="106.50" y="175.28" width="144.58" height="97.08" fill="#dd5f5f" stroke="#1a1a2e" stroke-width="0.8" rx="1"/>
  <rect x="45.49" y="218.64" width="25.83" height="30.74" fill="#5f7bdd" stroke="#1a1a2e" stroke-width="0.8" rx="1"/>
  <rect x="110.60" y="275.43" width="63.96" height="77.11" fill="#5fddaa" stroke="#1a1a2e" stroke-width="0.8" rx="1"/>
  <rect x="229.70" y="275.42" width="21.84" height="71.56" fill="#5f97dd" stroke="#1a1a2e" stroke-width="0.8" rx="1"/>
  <rect x="254.21" y="170.81" width="19.11" height="147.20" fill="#5fc4dd" stroke="#1a1a2e" stroke-width="0.8" rx="1"/>
  <rect x="177.10" y="275.35" width="49.63" height="63.99" fill="#5fd1dd" stroke="#1a1a2e" stroke-width="0.8" rx="1"/>
  <rect x="276.29" y="226.63" width="25.89" height="19.20" fill="#5f70dd" stroke="#1a1a2e" stroke-width="0.8" rx="1"/>
  <rect x="61.80" y="275.32" width="45.84" height="110.88" fill="#5fdda4" stroke="#1a1a2e" stroke-width="0.8" rx="1"/>
    </svg>
  </g>
  <g transform="translate(2100,0)">
    <svg width="420" height="470">
  <rect width="100%" height="100%" fill="#1a1a2e"/>
  <text x="210.0" y="16" text-anchor="middle" font-family="monospace" font-size="12" font-weight="bold" fill="#ffffffcc">force|n=20|eg=0.001|gap=0.001,0.001|ar=1.000</text>
  <text x="210.0" y="32" text-anchor="middle" font-family="monospace" font-size="12" fill="#ffffffaa">n=20 seed=86 71.5%|27.1ms</text>
  <rect x="20" y="64" width="380.0" height="380.0" fill="#cccccc" stroke="none"/>
  <rect x="272.16" y="119.49" width="3.87" height="3.46" fill="#5f5fdd" stroke="#1a1a2e" stroke-width="0.8" rx="1"/>
  <rect x="180.84" y="110.55" width="12.41" height="12.41" fill="#5f5fdd" stroke="#1a1a2e" stroke-width="0.8" rx="1"/>
  <rect x="277.00" y="114.40" width="5.15" height="8.57" fill="#5f5fdd" stroke="#1a1a2e" stroke-width="0.8" rx="1"/>
  <rect x="204.72" y="65.69" width="59.90" height="57.31" fill="#5f71dd" stroke="#1a1a2e" stroke-width="0.8" rx="1"/>
  <rect x="168.00" y="110.81" width="11.81" height="12.21" fill="#5f5fdd" stroke="#1a1a2e" stroke-width="0.8" rx="1"/>
  <rect x="46.79" y="116.52" width="18.68" height="24.01" fill="#5f61dd" stroke="#1a1a2e" stroke-width="0.8" rx="1"/>
  <rect x="236.77" y="441.03" width="2.83" height="1.29" fill="#5f5fdd" stroke="#1a1a2e" stroke-width="0.8" rx="1"/>
  <rect x="66.53" y="124.08" width="291.99" height="315.86" fill="#dd5f5f" stroke="#1a1a2e" stroke-width="0.8" rx="1"/>
  <rect x="359.65" y="102.91" width="23.64" height="53.52" fill="#5f66dd" stroke="#1a1a2e" stroke-width="0.8" rx="1"/>
  <rect x="359.61" y="180.29" width="10.88" height="17.54" fill="#5f60dd" stroke="#1a1a2e" stroke-width="0.8" rx="1"/>
  <rect x="44.54" y="141.64" width="21.10" height="36.73" fill="#5f63dd" stroke="#1a1a2e" stroke-width="0.8" rx="1"/>
  <rect x="283.27" y="109.25" width="11.16" height="13.70" fill="#5f5fdd" stroke="#1a1a2e" stroke-width="0.8" rx="1"/>
  <rect x="21.69" y="179.48" width="43.96" height="49.44" fill="#5f6add" stroke="#1a1a2e" stroke-width="0.8" rx="1"/>
  <rect x="374.90" y="157.70" width="8.89" height="15.71" fill="#5f5fdd" stroke="#1a1a2e" stroke-width="0.8" rx="1"/>
  <rect x="265.63" y="116.07" width="5.54" height="6.89" fill="#5f5fdd" stroke="#1a1a2e" stroke-width="0.8" rx="1"/>
  <rect x="369.98" y="159.60" width="3.95" height="8.57" fill="#5f5fdd" stroke="#1a1a2e" stroke-width="0.8" rx="1"/>
  <rect x="359.86" y="169.49" width="7.89" height="9.68" fill="#5f5fdd" stroke="#1a1a2e" stroke-width="0.8" rx="1"/>
  <rect x="194.27" y="107.46" width="9.33" height="15.50" fill="#5f5fdd" stroke="#1a1a2e" stroke-width="0.8" rx="1"/>
  <rect x="30.24" y="156.58" width="13.18" height="15.32" fill="#5f60dd" stroke="#1a1a2e" stroke-width="0.8" rx="1"/>
  <rect x="359.48" y="157.54" width="9.38" height="10.83" fill="#5f5fdd" stroke="#1a1a2e" stroke-width="0.8" rx="1"/>
    </svg>
  </g>
  <text x="210" y="486" text-anchor="middle" font-family="monospace" font-size="11" fill="#ffffffcc">glacier worst</text>
  <text x="630" y="486" text-anchor="middle" font-family="monospace" font-size="11" fill="#ffffffcc">glacier median</text>
  <text x="1050" y="486" text-anchor="middle" font-family="monospace" font-size="11" fill="#ffffffcc">glacier best</text>
  <text x="1470" y="486" text-anchor="middle" font-family="monospace" font-size="11" fill="#ffffffcc">force worst</text>
  <text x="1890" y="486" text-anchor="middle" font-family="monospace" font-size="11" fill="#ffffffcc">force median</text>
  <text x="2310" y="486" text-anchor="middle" font-family="monospace" font-size="11" fill="#ffffffcc">force best</text>
  <line x1="420" y1="0" x2="420" y2="470" stroke="#ffffff33" stroke-width="1"/>
  <line x1="840" y1="0" x2="840" y2="470" stroke="#ffffff33" stroke-width="1"/>
  <line x1="1260" y1="0" x2="1260" y2="470" stroke="#ffffff33" stroke-width="1"/>
  <line x1="1680" y1="0" x2="1680" y2="470" stroke="#ffffff33" stroke-width="1"/>
  <line x1="2100" y1="0" x2="2100" y2="470" stroke="#ffffff33" stroke-width="1"/>
  <line x1="1260" y1="0" x2="1260" y2="470" stroke="#ffffff88" stroke-width="2"/>
</svg>