<svg xmlns="http://www.w3.org/2000/svg" width="740" height="768">
  <rect width="100%" height="100%" fill="#1a1a2e"/>
  <text x="370.0" y="19" text-anchor="middle" font-family="monospace" font-size="13" font-weight="bold" fill="#ffffffcc">shelf | n=100 | gap=0,0 | ar=1.000 | U[0.1,1] × U[0.1,1]</text>
  <rect x="20" y="48" width="700.0" height="700.0" fill="#cccccc" stroke="none"/>
  <rect x="445.33" y="716.85" width="80.99" height="14.69" fill="#5f81dd" stroke="#1a1a2e" stroke-width="0.8" rx="1"/>
  <rect x="390.25" y="643.29" width="41.67" height="36.08" fill="#5f8fdd" stroke="#1a1a2e" stroke-width="0.8" rx="1"/>
  <rect x="234.71" y="275.52" width="91.46" height="85.01" fill="#9ddd5f" stroke="#1a1a2e" stroke-width="0.8" rx="1"/>
  <rect x="581.45" y="690.53" width="108.26" height="21.37" fill="#5fb1dd" stroke="#1a1a2e" stroke-width="0.8" rx="1"/>
  <rect x="387.81" y="716.33" width="57.52" height="15.20" fill="#5f74dd" stroke="#1a1a2e" stroke-width="0.8" rx="1"/>
  <rect x="318.37" y="517.75" width="35.58" height="66.52" fill="#5fb3dd" stroke="#1a1a2e" stroke-width="0.8" rx="1"/>
  <rect x="633.40" y="645.92" width="14.85" height="33.45" fill="#5f64dd" stroke="#1a1a2e" stroke-width="0.8" rx="1"/>
  <rect x="249.05" y="444.40" width="82.12" height="70.79" fill="#5fdd74" stroke="#1a1a2e" stroke-width="0.8" rx="1"/>
  <rect x="513.27" y="366.01" width="35.78" height="75.57" fill="#5fc2dd" stroke="#1a1a2e" stroke-width="0.8" rx="1"/>
  <rect x="526.32" y="718.84" width="99.33" height="12.69" fill="#5f84dd" stroke="#1a1a2e" stroke-width="0.8" rx="1"/>
  <rect x="63.68" y="273.21" width="98.94" height="87.32" fill="#c2dd5f" stroke="#1a1a2e" stroke-width="0.8" rx="1"/>
  <rect x="185.13" y="683.13" width="48.70" height="28.77" fill="#5f8add" stroke="#1a1a2e" stroke-width="0.8" rx="1"/>
  <rect x="287.20" y="590.64" width="115.28" height="48.31" fill="#5fdd7e" stroke="#1a1a2e" stroke-width="0.8" rx="1"/>
  <rect x="559.45" y="689.47" width="22.00" height="22.43" fill="#5f64dd" stroke="#1a1a2e" stroke-width="0.8" rx="1"/>
  <rect x="409.83" y="364.45" width="103.44" height="77.13" fill="#a5dd5f" stroke="#1a1a2e" stroke-width="0.8" rx="1"/>
  <rect x="618.97" y="179.13" width="99.08" height="90.73" fill="#d0dd5f" stroke="#1a1a2e" stroke-width="0.8" rx="1"/>
  <rect x="20.00" y="48.00" width="69.85" height="116.99" fill="#aedd5f" stroke="#1a1a2e" stroke-width="0.8" rx="1"/>
  <rect x="132.94" y="443.63" width="52.84" height="71.56" fill="#5fddca" stroke="#1a1a2e" stroke-width="0.8" rx="1"/>
  <rect x="226.43" y="362.85" width="101.49" height="78.73" fill="#a6dd5f" stroke="#1a1a2e" stroke-width="0.8" rx="1"/>
  <rect x="597.52" y="367.29" width="104.97" height="74.29" fill="#9edd5f" stroke="#1a1a2e" stroke-width="0.8" rx="1"/>
  <rect x="263.09" y="714.60" width="88.02" height="16.93" fill="#5f8edd" stroke="#1a1a2e" stroke-width="0.8" rx="1"/>
  <rect x="554.78" y="595.74" width="36.58" height="43.22" fill="#5f92dd" stroke="#1a1a2e" stroke-width="0.8" rx="1"/>
  <rect x="344.60" y="642.25" width="20.60" height="37.11" fill="#5f6fdd" stroke="#1a1a2e" stroke-width="0.8" rx="1"/>
  <rect x="648.87" y="596.97" width="22.89" height="41.98" fill="#5f78dd" stroke="#1a1a2e" stroke-width="0.8" rx="1"/>
  <rect x="151.18" y="587.60" width="80.58" height="51.36" fill="#5fddbb" stroke="#1a1a2e" stroke-width="0.8" rx="1"/>
  <rect x="581.47" y="644.77" width="51.93" height="34.60" fill="#5f9bdd" stroke="#1a1a2e" stroke-width="0.8" rx="1"/>
  <rect x="292.29" y="51.93" width="40.80" height="113.06" fill="#5fdda7" stroke="#1a1a2e" stroke-width="0.8" rx="1"/>
  <rect x="327.92" y="363.86" width="81.92" height="77.72" fill="#61dd5f" stroke="#1a1a2e" stroke-width="0.8" rx="1"/>
  <rect x="20.00" y="269.87" width="30.46" height="90.67" fill="#5fc4dd" stroke="#1a1a2e" stroke-width="0.8" rx="1"/>
  <rect x="121.56" y="586.02" width="29.62" height="52.93" fill="#5f91dd" stroke="#1a1a2e" stroke-width="0.8" rx="1"/>
  <rect x="20.00" y="360.53" width="118.76" height="81.05" fill="#ddce5f" stroke="#1a1a2e" stroke-width="0.8" rx="1"/>
  <rect x="162.63" y="274.67" width="72.09" height="85.86" fill="#5fdd64" stroke="#1a1a2e" stroke-width="0.8" rx="1"/>
  <rect x="426.39" y="174.14" width="102.94" height="95.72" fill="#ddc45f" stroke="#1a1a2e" stroke-width="0.8" rx="1"/>
  <rect x="351.11" y="716.08" width="36.70" height="15.45" fill="#5f67dd" stroke="#1a1a2e" stroke-width="0.8" rx="1"/>
  <rect x="671.76" y="598.07" width="46.03" height="40.88" fill="#5f9fdd" stroke="#1a1a2e" stroke-width="0.8" rx="1"/>
  <rect x="257.53" y="51.26" width="34.76" height="113.73" fill="#5fddc3" stroke="#1a1a2e" stroke-width="0.8" rx="1"/>
  <rect x="414.53" y="593.01" width="106.55" height="45.94" fill="#5fdd9b" stroke="#1a1a2e" stroke-width="0.8" rx="1"/>
  <rect x="20.00" y="584.27" width="82.71" height="54.68" fill="#5fddaa" stroke="#1a1a2e" stroke-width="0.8" rx="1"/>
  <rect x="432.88" y="522.77" width="110.67" height="61.50" fill="#74dd5f" stroke="#1a1a2e" stroke-width="0.8" rx="1"/>
  <rect x="304.03" y="640.76" width="40.57" height="38.60" fill="#5f91dd" stroke="#1a1a2e" stroke-width="0.8" rx="1"/>
  <rect x="126.50" y="639.02" width="72.56" height="40.34" fill="#5fcbdd" stroke="#1a1a2e" stroke-width="0.8" rx="1"/>
  <rect x="422.81" y="56.12" width="75.07" height="108.87" fill="#aedd5f" stroke="#1a1a2e" stroke-width="0.8" rx="1"/>
  <rect x="468.74" y="643.71" width="55.09" height="35.66" fill="#5fa2dd" stroke="#1a1a2e" stroke-width="0.8" rx="1"/>
  <rect x="198.74" y="517.30" width="119.63" height="66.97" fill="#a7dd5f" stroke="#1a1a2e" stroke-width="0.8" rx="1"/>
  <rect x="241.29" y="714.46" width="21.80" height="17.07" fill="#5f5fdd" stroke="#1a1a2e" stroke-width="0.8" rx="1"/>
  <rect x="202.61" y="361.89" width="23.82" height="79.69" fill="#5f9fdd" stroke="#1a1a2e" stroke-width="0.8" rx="1"/>
  <rect x="622.54" y="526.73" width="97.46" height="57.54" fill="#5fdd7c" stroke="#1a1a2e" stroke-width="0.8" rx="1"/>
  <rect x="102.71" y="585.78" width="18.84" height="53.17" fill="#5f79dd" stroke="#1a1a2e" stroke-width="0.8" rx="1"/>
  <rect x="20.00" y="515.19" width="119.48" height="69.08" fill="#b1dd5f" stroke="#1a1a2e" stroke-width="0.8" rx="1"/>
  <rect x="20.00" y="164.99" width="116.77" height="104.87" fill="#dd5f5f" stroke="#1a1a2e" stroke-width="0.8" rx="1"/>
  <rect x="50.46" y="270.77" width="13.23" height="89.76" fill="#5f81dd" stroke="#1a1a2e" stroke-width="0.8" rx="1"/>
  <rect x="425.43" y="445.26" width="85.55" height="69.93" fill="#5fdd6c" stroke="#1a1a2e" stroke-width="0.8" rx="1"/>
  <rect x="573.88" y="279.38" width="40.78" height="81.15" fill="#5fdbdd" stroke="#1a1a2e" stroke-width="0.8" rx="1"/>
  <rect x="576.07" y="525.37" width="24.03" height="58.90" fill="#5f8bdd" stroke="#1a1a2e" stroke-width="0.8" rx="1"/>
  <rect x="89.85" y="50.08" width="60.95" height="114.91" fill="#7cdd5f" stroke="#1a1a2e" stroke-width="0.8" rx="1"/>
  <rect x="20.00" y="638.95" width="106.50" height="40.41" fill="#5fddb4" stroke="#1a1a2e" stroke-width="0.8" rx="1"/>
  <rect x="119.12" y="680.63" width="66.01" height="31.27" fill="#5fa6dd" stroke="#1a1a2e" stroke-width="0.8" rx="1"/>
  <rect x="538.47" y="59.07" width="110.47" height="105.92" fill="#dd765f" stroke="#1a1a2e" stroke-width="0.8" rx="1"/>
  <rect x="138.76" y="360.65" width="44.19" height="80.94" fill="#5fddd3" stroke="#1a1a2e" stroke-width="0.8" rx="1"/>
  <rect x="233.83" y="683.42" width="77.70" height="28.48" fill="#5faddd" stroke="#1a1a2e" stroke-width="0.8" rx="1"/>
  <rect x="331.16" y="445.00" width="94.27" height="70.19" fill="#6cdd5f" stroke="#1a1a2e" stroke-width="0.8" rx="1"/>
  <rect x="510.98" y="445.97" width="96.01" height="69.22" fill="#6ddd5f" stroke="#1a1a2e" stroke-width="0.8" rx="1"/>
  <rect x="402.48" y="591.99" width="12.05" height="46.97" fill="#5f67dd" stroke="#1a1a2e" stroke-width="0.8" rx="1"/>
  <rect x="333.08" y="52.75" width="14.09" height="112.24" fill="#5f92dd" stroke="#1a1a2e" stroke-width="0.8" rx="1"/>
  <rect x="256.59" y="168.14" width="106.81" height="101.73" fill="#dd995f" stroke="#1a1a2e" stroke-width="0.8" rx="1"/>
  <rect x="124.75" y="713.29" width="45.17" height="18.24" fill="#5f72dd" stroke="#1a1a2e" stroke-width="0.8" rx="1"/>
  <rect x="150.80" y="50.82" width="106.73" height="114.17" fill="#dd615f" stroke="#1a1a2e" stroke-width="0.8" rx="1"/>
  <rect x="353.95" y="519.84" width="21.23" height="64.43" fill="#5f89dd" stroke="#1a1a2e" stroke-width="0.8" rx="1"/>
  <rect x="529.33" y="175.80" width="19.46" height="94.06" fill="#5f9cdd" stroke="#1a1a2e" stroke-width="0.8" rx="1"/>
  <rect x="346.64" y="686.06" width="94.63" height="25.84" fill="#5fb7dd" stroke="#1a1a2e" stroke-width="0.8" rx="1"/>
  <rect x="185.77" y="443.87" width="63.27" height="71.32" fill="#5fddab" stroke="#1a1a2e" stroke-width="0.8" rx="1"/>
  <rect x="497.88" y="58.86" width="40.59" height="106.13" fill="#5fddb4" stroke="#1a1a2e" stroke-width="0.8" rx="1"/>
  <rect x="523.82" y="644.52" width="57.65" height="34.84" fill="#5fa4dd" stroke="#1a1a2e" stroke-width="0.8" rx="1"/>
  <rect x="548.79" y="179.11" width="70.18" height="90.75" fill="#61dd5f" stroke="#1a1a2e" stroke-width="0.8" rx="1"/>
  <rect x="521.08" y="593.33" width="33.69" height="45.63" fill="#5f90dd" stroke="#1a1a2e" stroke-width="0.8" rx="1"/>
  <rect x="454.50" y="278.42" width="119.37" height="82.11" fill="#ddc65f" stroke="#1a1a2e" stroke-width="0.8" rx="1"/>
  <rect x="139.48" y="516.43" width="59.26" height="67.84" fill="#5fddc0" stroke="#1a1a2e" stroke-width="0.8" rx="1"/>
  <rect x="365.20" y="643.13" width="25.05" height="36.24" fill="#5f75dd" stroke="#1a1a2e" stroke-width="0.8" rx="1"/>
  <rect x="549.05" y="366.11" width="48.47" height="75.47" fill="#5fddcf" stroke="#1a1a2e" stroke-width="0.8" rx="1"/>
  <rect x="431.92" y="643.61" width="36.82" height="35.75" fill="#5f87dd" stroke="#1a1a2e" stroke-width="0.8" rx="1"/>
  <rect x="182.96" y="361.49" width="19.65" height="80.09" fill="#5f92dd" stroke="#1a1a2e" stroke-width="0.8" rx="1"/>
  <rect x="386.12" y="55.30" width="36.69" height="109.69" fill="#5fddc0" stroke="#1a1a2e" stroke-width="0.8" rx="1"/>
  <rect x="20.00" y="711.90" width="104.75" height="19.64" fill="#5fa6dd" stroke="#1a1a2e" stroke-width="0.8" rx="1"/>
  <rect x="416.83" y="276.36" width="37.67" height="84.18" fill="#5fd5dd" stroke="#1a1a2e" stroke-width="0.8" rx="1"/>
  <rect x="311.53" y="685.63" width="35.11" height="26.27" fill="#5f76dd" stroke="#1a1a2e" stroke-width="0.8" rx="1"/>
  <rect x="20.00" y="441.58" width="112.94" height="73.61" fill="#b4dd5f" stroke="#1a1a2e" stroke-width="0.8" rx="1"/>
  <rect x="363.40" y="173.21" width="62.99" height="96.65" fill="#5fdd68" stroke="#1a1a2e" stroke-width="0.8" rx="1"/>
  <rect x="20.00" y="679.36" width="99.12" height="32.54" fill="#5fd8dd" stroke="#1a1a2e" stroke-width="0.8" rx="1"/>
  <rect x="600.09" y="525.77" width="22.45" height="58.50" fill="#5f87dd" stroke="#1a1a2e" stroke-width="0.8" rx="1"/>
  <rect x="375.18" y="521.89" width="57.70" height="62.38" fill="#5fddd2" stroke="#1a1a2e" stroke-width="0.8" rx="1"/>
  <rect x="326.17" y="275.88" width="90.66" height="84.65" fill="#99dd5f" stroke="#1a1a2e" stroke-width="0.8" rx="1"/>
  <rect x="441.27" y="689.29" width="118.19" height="22.61" fill="#5fc0dd" stroke="#1a1a2e" stroke-width="0.8" rx="1"/>
  <rect x="231.76" y="590.35" width="55.43" height="48.60" fill="#5fc1dd" stroke="#1a1a2e" stroke-width="0.8" rx="1"/>
  <rect x="199.06" y="640.54" width="104.97" height="38.82" fill="#5fddbd" stroke="#1a1a2e" stroke-width="0.8" rx="1"/>
  <rect x="543.55" y="523.88" width="32.51" height="60.40" fill="#5fa2dd" stroke="#1a1a2e" stroke-width="0.8" rx="1"/>
  <rect x="591.36" y="596.91" width="57.51" height="42.05" fill="#5fb5dd" stroke="#1a1a2e" stroke-width="0.8" rx="1"/>
  <rect x="347.18" y="53.38" width="38.94" height="111.61" fill="#5fddb2" stroke="#1a1a2e" stroke-width="0.8" rx="1"/>
  <rect x="648.94" y="60.06" width="59.81" height="104.93" fill="#5fdd60" stroke="#1a1a2e" stroke-width="0.8" rx="1"/>
  <rect x="169.92" y="714.09" width="71.37" height="17.45" fill="#5f84dd" stroke="#1a1a2e" stroke-width="0.8" rx="1"/>
  <rect x="136.77" y="167.66" width="119.82" height="102.20" fill="#dd5f5f" stroke="#1a1a2e" stroke-width="0.8" rx="1"/>
  <text x="370.0" y="760.0" text-anchor="middle" font-family="monospace" font-size="13" fill="#ffffffbb">coverage 85.6%  |  bbox 5.84 × 5.84  |  ratio 1.000  |  n=100  |  3.2 ms</text>
</svg>