<svg xmlns="http://www.w3.org/2000/svg" width="700" height="440">
  <rect width="100%" height="100%" fill="#0e0e1a"/>
  <rect x="0" y="0" width="700" height="220" fill="#1a1a2e"/>
  <text x="350" y="19" text-anchor="middle" font-family="monospace" font-size="13" font-weight="bold" fill="#ffffffcc">strava sample  n=10  |  1000 seeds  |  gap=0.001  ar=1.000</text>
  <rect x="50" y="38" width="630" height="154" fill="#0d0d20"/>
  <line x1="50.0" y1="38" x2="50.0" y2="192" stroke="#ffffff22" stroke-width="1"/>
  <text x="50.0" y="206" text-anchor="middle" font-family="monospace" font-size="11" fill="#ffffff88">40%</text>
  <line x1="151.6" y1="38" x2="151.6" y2="192" stroke="#ffffff22" stroke-width="1"/>
  <text x="151.6" y="206" text-anchor="middle" font-family="monospace" font-size="11" fill="#ffffff88">50%</text>
  <line x1="253.2" y1="38" x2="253.2" y2="192" stroke="#ffffff22" stroke-width="1"/>
  <text x="253.2" y="206" text-anchor="middle" font-family="monospace" font-size="11" fill="#ffffff88">60%</text>
  <line x1="354.8" y1="38" x2="354.8" y2="192" stroke="#ffffff22" stroke-width="1"/>
  <text x="354.8" y="206" text-anchor="middle" font-family="monospace" font-size="11" fill="#ffffff88">70%</text>
  <line x1="456.5" y1="38" x2="456.5" y2="192" stroke="#ffffff22" stroke-width="1"/>
  <text x="456.5" y="206" text-anchor="middle" font-family="monospace" font-size="11" fill="#ffffff88">80%</text>
  <line x1="558.1" y1="38" x2="558.1" y2="192" stroke="#ffffff22" stroke-width="1"/>
  <text x="558.1" y="206" text-anchor="middle" font-family="monospace" font-size="11" fill="#ffffff88">90%</text>
  <line x1="659.7" y1="38" x2="659.7" y2="192" stroke="#ffffff22" stroke-width="1"/>
  <text x="659.7" y="206" text-anchor="middle" font-family="monospace" font-size="11" fill="#ffffff88">100%</text>
  <rect x="50.0" y="148.7" width="20.3" height="43.3" fill="#4a9eddcc" stroke="#2a6ea8" stroke-width="0.5"/>
  <rect x="70.3" y="179.3" width="20.3" height="12.7" fill="#4a9eddcc" stroke="#2a6ea8" stroke-width="0.5"/>
  <rect x="90.6" y="183.1" width="20.3" height="8.9" fill="#4a9eddcc" stroke="#2a6ea8" stroke-width="0.5"/>
  <rect x="111.0" y="178.0" width="20.3" height="14.0" fill="#4a9eddcc" stroke="#2a6ea8" stroke-width="0.5"/>
  <rect x="131.3" y="178.0" width="20.3" height="14.0" fill="#4a9eddcc" stroke="#2a6ea8" stroke-width="0.5"/>
  <rect x="151.6" y="171.6" width="20.3" height="20.4" fill="#4a9eddcc" stroke="#2a6ea8" stroke-width="0.5"/>
  <rect x="171.9" y="160.2" width="20.3" height="31.8" fill="#4a9eddcc" stroke="#2a6ea8" stroke-width="0.5"/>
  <rect x="192.3" y="148.7" width="20.3" height="43.3" fill="#4a9eddcc" stroke="#2a6ea8" stroke-width="0.5"/>
  <rect x="212.6" y="146.2" width="20.3" height="45.8" fill="#4a9eddcc" stroke="#2a6ea8" stroke-width="0.5"/>
  <rect x="232.9" y="119.5" width="20.3" height="72.5" fill="#4a9eddcc" stroke="#2a6ea8" stroke-width="0.5"/>
  <rect x="253.2" y="116.9" width="20.3" height="75.1" fill="#4a9eddcc" stroke="#2a6ea8" stroke-width="0.5"/>
  <rect x="273.5" y="101.6" width="20.3" height="90.4" fill="#4a9eddcc" stroke="#2a6ea8" stroke-width="0.5"/>
  <rect x="293.9" y="67.3" width="20.3" height="124.7" fill="#4a9eddcc" stroke="#2a6ea8" stroke-width="0.5"/>
  <rect x="314.2" y="69.8" width="20.3" height="122.2" fill="#4a9eddcc" stroke="#2a6ea8" stroke-width="0.5"/>
  <rect x="334.5" y="66.0" width="20.3" height="126.0" fill="#4a9eddcc" stroke="#2a6ea8" stroke-width="0.5"/>
  <rect x="354.8" y="73.6" width="20.3" height="118.4" fill="#4a9eddcc" stroke="#2a6ea8" stroke-width="0.5"/>
  <rect x="375.2" y="80.0" width="20.3" height="112.0" fill="#4a9eddcc" stroke="#2a6ea8" stroke-width="0.5"/>
  <rect x="395.5" y="111.8" width="20.3" height="80.2" fill="#4a9eddcc" stroke="#2a6ea8" stroke-width="0.5"/>
  <rect x="415.8" y="147.5" width="20.3" height="44.5" fill="#4a9eddcc" stroke="#2a6ea8" stroke-width="0.5"/>
  <rect x="436.1" y="167.8" width="20.3" height="24.2" fill="#4a9eddcc" stroke="#2a6ea8" stroke-width="0.5"/>
  <rect x="456.5" y="161.5" width="20.3" height="30.5" fill="#4a9eddcc" stroke="#2a6ea8" stroke-width="0.5"/>
  <rect x="476.8" y="186.9" width="20.3" height="5.1" fill="#4a9eddcc" stroke="#2a6ea8" stroke-width="0.5"/>
  <rect x="497.1" y="183.1" width="20.3" height="8.9" fill="#4a9eddcc" stroke="#2a6ea8" stroke-width="0.5"/>
  <rect x="517.4" y="189.5" width="20.3" height="2.5" fill="#4a9eddcc" stroke="#2a6ea8" stroke-width="0.5"/>
  <rect x="558.1" y="190.7" width="20.3" height="1.3" fill="#4a9eddcc" stroke="#2a6ea8" stroke-width="0.5"/>
  <rect x="50.0" y="162.7" width="20.3" height="29.3" fill="#e07040cc" stroke="#a04010" stroke-width="0.5"/>
  <rect x="70.3" y="181.8" width="20.3" height="10.2" fill="#e07040cc" stroke="#a04010" stroke-width="0.5"/>
  <rect x="90.6" y="184.4" width="20.3" height="7.6" fill="#e07040cc" stroke="#a04010" stroke-width="0.5"/>
  <rect x="111.0" y="181.8" width="20.3" height="10.2" fill="#e07040cc" stroke="#a04010" stroke-width="0.5"/>
  <rect x="131.3" y="186.9" width="20.3" height="5.1" fill="#e07040cc" stroke="#a04010" stroke-width="0.5"/>
  <rect x="151.6" y="180.5" width="20.3" height="11.5" fill="#e07040cc" stroke="#a04010" stroke-width="0.5"/>
  <rect x="171.9" y="176.7" width="20.3" height="15.3" fill="#e07040cc" stroke="#a04010" stroke-width="0.5"/>
  <rect x="192.3" y="175.5" width="20.3" height="16.5" fill="#e07040cc" stroke="#a04010" stroke-width="0.5"/>
  <rect x="212.6" y="179.3" width="20.3" height="12.7" fill="#e07040cc" stroke="#a04010" stroke-width="0.5"/>
  <rect x="232.9" y="169.1" width="20.3" height="22.9" fill="#e07040cc" stroke="#a04010" stroke-width="0.5"/>
  <rect x="253.2" y="157.6" width="20.3" height="34.4" fill="#e07040cc" stroke="#a04010" stroke-width="0.5"/>
  <rect x="273.5" y="143.6" width="20.3" height="48.4" fill="#e07040cc" stroke="#a04010" stroke-width="0.5"/>
  <rect x="293.9" y="122.0" width="20.3" height="70.0" fill="#e07040cc" stroke="#a04010" stroke-width="0.5"/>
  <rect x="314.2" y="83.8" width="20.3" height="108.2" fill="#e07040cc" stroke="#a04010" stroke-width="0.5"/>
  <rect x="334.5" y="82.5" width="20.3" height="109.5" fill="#e07040cc" stroke="#a04010" stroke-width="0.5"/>
  <rect x="354.8" y="38.0" width="20.3" height="154.0" fill="#e07040cc" stroke="#a04010" stroke-width="0.5"/>
  <rect x="375.2" y="48.2" width="20.3" height="143.8" fill="#e07040cc" stroke="#a04010" stroke-width="0.5"/>
  <rect x="395.5" y="43.1" width="20.3" height="148.9" fill="#e07040cc" stroke="#a04010" stroke-width="0.5"/>
  <rect x="415.8" y="87.6" width="20.3" height="104.4" fill="#e07040cc" stroke="#a04010" stroke-width="0.5"/>
  <rect x="436.1" y="115.6" width="20.3" height="76.4" fill="#e07040cc" stroke="#a04010" stroke-width="0.5"/>
  <rect x="456.5" y="123.3" width="20.3" height="68.7" fill="#e07040cc" stroke="#a04010" stroke-width="0.5"/>
  <rect x="476.8" y="169.1" width="20.3" height="22.9" fill="#e07040cc" stroke="#a04010" stroke-width="0.5"/>
  <rect x="497.1" y="160.2" width="20.3" height="31.8" fill="#e07040cc" stroke="#a04010" stroke-width="0.5"/>
  <rect x="517.4" y="184.4" width="20.3" height="7.6" fill="#e07040cc" stroke="#a04010" stroke-width="0.5"/>
  <rect x="558.1" y="189.5" width="20.3" height="2.5" fill="#e07040cc" stroke="#a04010" stroke-width="0.5"/>
  <rect x="58" y="42" width="12" height="12" fill="#4a9eddcc"/>
  <text x="74" y="52" font-family="monospace" font-size="11" fill="#ffffffcc">shelf  mean 65.2%</text>
  <rect x="58" y="60" width="12" height="12" fill="#e07040cc"/>
  <text x="74" y="70" font-family="monospace" font-size="11" fill="#ffffffcc">glacier  mean 70.0%</text>
  <rect x="0" y="220" width="700" height="220" fill="#1a1a2e"/>
  <text x="350" y="239" text-anchor="middle" font-family="monospace" font-size="13" font-weight="bold" fill="#ffffffcc">strava sample  n=100  |  1000 seeds  |  gap=0.001  ar=1.000</text>
  <rect x="50" y="258" width="630" height="154" fill="#0d0d20"/>
  <line x1="50.0" y1="258" x2="50.0" y2="412" stroke="#ffffff22" stroke-width="1"/>
  <text x="50.0" y="426" text-anchor="middle" font-family="monospace" font-size="11" fill="#ffffff88">40%</text>
  <line x1="151.6" y1="258" x2="151.6" y2="412" stroke="#ffffff22" stroke-width="1"/>
  <text x="151.6" y="426" text-anchor="middle" font-family="monospace" font-size="11" fill="#ffffff88">50%</text>
  <line x1="253.2" y1="258" x2="253.2" y2="412" stroke="#ffffff22" stroke-width="1"/>
  <text x="253.2" y="426" text-anchor="middle" font-family="monospace" font-size="11" fill="#ffffff88">60%</text>
  <line x1="354.8" y1="258" x2="354.8" y2="412" stroke="#ffffff22" stroke-width="1"/>
  <text x="354.8" y="426" text-anchor="middle" font-family="monospace" font-size="11" fill="#ffffff88">70%</text>
  <line x1="456.5" y1="258" x2="456.5" y2="412" stroke="#ffffff22" stroke-width="1"/>
  <text x="456.5" y="426" text-anchor="middle" font-family="monospace" font-size="11" fill="#ffffff88">80%</text>
  <line x1="558.1" y1="258" x2="558.1" y2="412" stroke="#ffffff22" stroke-width="1"/>
  <text x="558.1" y="426" text-anchor="middle" font-family="monospace" font-size="11" fill="#ffffff88">90%</text>
  <line x1="659.7" y1="258" x2="659.7" y2="412" stroke="#ffffff22" stroke-width="1"/>
  <text x="659.7" y="426" text-anchor="middle" font-family="monospace" font-size="11" fill="#ffffff88">100%</text>
  <rect x="212.6" y="411.5" width="20.3" height="0.5" fill="#4a9eddcc" stroke="#2a6ea8" stroke-width="0.5"/>
  <rect x="253.2" y="410.4" width="20.3" height="1.6" fill="#4a9eddcc" stroke="#2a6ea8" stroke-width="0.5"/>
  <rect x="273.5" y="410.4" width="20.3" height="1.6" fill="#4a9eddcc" stroke="#2a6ea8" stroke-width="0.5"/>
  <rect x="293.9" y="406.6" width="20.3" height="5.4" fill="#4a9eddcc" stroke="#2a6ea8" stroke-width="0.5"/>
  <rect x="314.2" y="407.2" width="20.3" height="4.8" fill="#4a9eddcc" stroke="#2a6ea8" stroke-width="0.5"/>
  <rect x="334.5" y="392.7" width="20.3" height="19.3" fill="#4a9eddcc" stroke="#2a6ea8" stroke-width="0.5"/>
  <rect x="354.8" y="391.1" width="20.3" height="20.9" fill="#4a9eddcc" stroke="#2a6ea8" stroke-width="0.5"/>
  <rect x="375.2" y="376.0" width="20.3" height="36.0" fill="#4a9eddcc" stroke="#2a6ea8" stroke-width="0.5"/>
  <rect x="395.5" y="360.5" width="20.3" height="51.5" fill="#4a9eddcc" stroke="#2a6ea8" stroke-width="0.5"/>
  <rect x="415.8" y="361.0" width="20.3" height="51.0" fill="#4a9eddcc" stroke="#2a6ea8" stroke-width="0.5"/>
  <rect x="436.1" y="352.4" width="20.3" height="59.6" fill="#4a9eddcc" stroke="#2a6ea8" stroke-width="0.5"/>
  <rect x="456.5" y="338.0" width="20.3" height="74.0" fill="#4a9eddcc" stroke="#2a6ea8" stroke-width="0.5"/>
  <rect x="476.8" y="323.5" width="20.3" height="88.5" fill="#4a9eddcc" stroke="#2a6ea8" stroke-width="0.5"/>
  <rect x="497.1" y="341.7" width="20.3" height="70.3" fill="#4a9eddcc" stroke="#2a6ea8" stroke-width="0.5"/>
  <rect x="517.4" y="368.5" width="20.3" height="43.5" fill="#4a9eddcc" stroke="#2a6ea8" stroke-width="0.5"/>
  <rect x="537.7" y="404.5" width="20.3" height="7.5" fill="#4a9eddcc" stroke="#2a6ea8" stroke-width="0.5"/>
  <rect x="558.1" y="411.5" width="20.3" height="0.5" fill="#4a9eddcc" stroke="#2a6ea8" stroke-width="0.5"/>
  <rect x="293.9" y="411.5" width="20.3" height="0.5" fill="#e07040cc" stroke="#a04010" stroke-width="0.5"/>
  <rect x="314.2" y="411.5" width="20.3" height="0.5" fill="#e07040cc" stroke="#a04010" stroke-width="0.5"/>
  <rect x="334.5" y="411.5" width="20.3" height="0.5" fill="#e07040cc" stroke="#a04010" stroke-width="0.5"/>
  <rect x="375.2" y="410.4" width="20.3" height="1.6" fill="#e07040cc" stroke="#a04010" stroke-width="0.5"/>
  <rect x="395.5" y="405.6" width="20.3" height="6.4" fill="#e07040cc" stroke="#a04010" stroke-width="0.5"/>
  <rect x="415.8" y="404.5" width="20.3" height="7.5" fill="#e07040cc" stroke="#a04010" stroke-width="0.5"/>
  <rect x="436.1" y="394.3" width="20.3" height="17.7" fill="#e07040cc" stroke="#a04010" stroke-width="0.5"/>
  <rect x="456.5" y="382.0" width="20.3" height="30.0" fill="#e07040cc" stroke="#a04010" stroke-width="0.5"/>
  <rect x="476.8" y="369.1" width="20.3" height="42.9" fill="#e07040cc" stroke="#a04010" stroke-width="0.5"/>
  <rect x="497.1" y="306.3" width="20.3" height="105.7" fill="#e07040cc" stroke="#a04010" stroke-width="0.5"/>
  <rect x="517.4" y="258.0" width="20.3" height="154.0" fill="#e07040cc" stroke="#a04010" stroke-width="0.5"/>
  <rect x="537.7" y="277.3" width="20.3" height="134.7" fill="#e07040cc" stroke="#a04010" stroke-width="0.5"/>
  <rect x="558.1" y="380.3" width="20.3" height="31.7" fill="#e07040cc" stroke="#a04010" stroke-width="0.5"/>
  <rect x="578.4" y="409.3" width="20.3" height="2.7" fill="#e07040cc" stroke="#a04010" stroke-width="0.5"/>
  <rect x="58" y="262" width="12" height="12" fill="#4a9eddcc"/>
  <text x="74" y="272" font-family="monospace" font-size="11" fill="#ffffffcc">shelf  mean 79.5%</text>
  <rect x="58" y="280" width="12" height="12" fill="#e07040cc"/>
  <text x="74" y="290" font-family="monospace" font-size="11" fill="#ffffffcc">glacier  mean 86.1%</text>
  <line x1="0" y1="220" x2="700" y2="220" stroke="#ffffff44" stroke-width="1"/>
</svg>