<svg xmlns="http://www.w3.org/2000/svg" width="1080" height="580">
  <rect width="100%" height="100%" fill="#0e0e1a"/>
  <g transform="translate(0,0)">
    <svg width="540" height="580">
  <rect width="100%" height="100%" fill="#1a1a2e"/>
  <text x="186.7" y="19" text-anchor="middle" font-family="monospace" font-size="13" font-weight="bold" fill="#ffffffcc">shelf | n=11 | eg=0.001 | gap=0.001,0.001 | ar=0.667 | shelf</text>
  <rect x="20" y="48" width="333.3" height="500.0" fill="#cccccc" stroke="none"/>
  <rect x="219.21" y="164.31" width="47.59" height="127.16" fill="#5fd6dd" stroke="#1a1a2e" stroke-width="0.8" rx="1"/>
  <rect x="41.09" y="419.38" width="53.24" height="76.76" fill="#5fa9dd" stroke="#1a1a2e" stroke-width="0.8" rx="1"/>
  <rect x="202.82" y="512.29" width="29.90" height="29.55" fill="#5f5fdd" stroke="#1a1a2e" stroke-width="0.8" rx="1"/>
  <rect x="33.27" y="297.60" width="195.80" height="115.65" fill="#dd5f5f" stroke="#1a1a2e" stroke-width="0.8" rx="1"/>
  <rect x="181.19" y="436.44" width="151.06" height="59.70" fill="#5fdd9e" stroke="#1a1a2e" stroke-width="0.8" rx="1"/>
  <rect x="111.62" y="161.39" width="101.45" height="130.07" fill="#80dd5f" stroke="#1a1a2e" stroke-width="0.8" rx="1"/>
  <rect x="100.46" y="427.18" width="74.59" height="68.96" fill="#5fc1dd" stroke="#1a1a2e" stroke-width="0.8" rx="1"/>
  <rect x="28.49" y="54.14" width="77.00" height="237.32" fill="#ddc45f" stroke="#1a1a2e" stroke-width="0.8" rx="1"/>
  <rect x="140.62" y="502.28" width="56.06" height="39.57" fill="#5f7edd" stroke="#1a1a2e" stroke-width="0.8" rx="1"/>
  <rect x="235.21" y="309.54" width="104.85" height="103.71" fill="#5fdd73" stroke="#1a1a2e" stroke-width="0.8" rx="1"/>
  <rect x="272.93" y="207.87" width="71.91" height="83.59" fill="#5fd5dd" stroke="#1a1a2e" stroke-width="0.8" rx="1"/>
  <text x="186.7" y="560.0" text-anchor="middle" font-family="monospace" font-size="13" fill="#ffffffbb">coverage 66.8%  |  bbox 0.05 × 0.08  |  n=11  |  0.1 ms</text>
    </svg>
  </g>
  <g transform="translate(540,0)">
    <svg width="540" height="580">
  <rect width="100%" height="100%" fill="#1a1a2e"/>
  <text x="186.7" y="19" text-anchor="middle" font-family="monospace" font-size="13" font-weight="bold" fill="#ffffffcc">glacier | n=11 | eg=0.001 | gap=0.001,0.001 | ar=0.667 | glacier</text>
  <rect x="20" y="48" width="333.3" height="500.0" fill="#cccccc" stroke="none"/>
  <rect x="297.26" y="187.17" width="47.59" height="127.16" fill="#5fd6dd" stroke="#1a1a2e" stroke-width="0.8" rx="1"/>
  <rect x="169.31" y="320.46" width="53.24" height="76.76" fill="#5fa9dd" stroke="#1a1a2e" stroke-width="0.8" rx="1"/>
  <rect x="297.26" y="151.48" width="29.90" height="29.55" fill="#000000" stroke="#1a1a2e" stroke-width="0.8" rx="1"/>
  <rect x="144.26" y="403.35" width="195.80" height="115.65" fill="#dd5f5f" stroke="#1a1a2e" stroke-width="0.8" rx="1"/>
  <rect x="56.93" y="118.42" width="151.06" height="59.70" fill="#000000" stroke="#1a1a2e" stroke-width="0.8" rx="1"/>
  <rect x="106.54" y="184.25" width="101.45" height="130.07" fill="#80dd5f" stroke="#1a1a2e" stroke-width="0.8" rx="1"/>
  <rect x="88.59" y="328.26" width="74.59" height="68.96" fill="#5fc1dd" stroke="#1a1a2e" stroke-width="0.8" rx="1"/>
  <rect x="214.13" y="77.00" width="77.00" height="237.32" fill="#ddc45f" stroke="#1a1a2e" stroke-width="0.8" rx="1"/>
  <rect x="228.68" y="357.65" width="56.06" height="39.57" fill="#5f7edd" stroke="#1a1a2e" stroke-width="0.8" rx="1"/>
  <rect x="33.27" y="415.29" width="104.85" height="103.71" fill="#5fdd73" stroke="#1a1a2e" stroke-width="0.8" rx="1"/>
  <rect x="28.49" y="230.73" width="71.91" height="83.59" fill="#5fd5dd" stroke="#1a1a2e" stroke-width="0.8" rx="1"/>
  <text x="186.7" y="560.0" text-anchor="middle" font-family="monospace" font-size="13" fill="#ffffffbb">coverage 66.8%  |  bbox 0.05 × 0.08  |  n=11  |  0.2 ms</text>
    </svg>
  </g>
  <line x1="540" y1="0" x2="540" y2="580" stroke="#ffffff44" stroke-width="1"/>
</svg>