<svg xmlns="http://www.w3.org/2000/svg" width="2520" height="494">
  <rect width="100%" height="100%" fill="#0e0e1a"/>
  <g transform="translate(0,0)">
    <svg width="420" height="470">
  <rect width="100%" height="100%" fill="#1a1a2e"/>
  <text x="210.0" y="16" text-anchor="middle" font-family="monospace" font-size="12" font-weight="bold" fill="#ffffffcc">n=20|gap=0.0125,0.0125|ar=1.000</text>
  <text x="210.0" y="32" text-anchor="middle" font-family="monospace" font-size="12" fill="#ffffffaa">n=20 seed=954 72.6%|1.0ms</text>
  <rect x="20" y="64" width="380.0" height="380.0" fill="#cccccc" stroke="none"/>
  <rect x="259.64" y="125.89" width="26.40" height="10.61" fill="#000000" stroke="#1a1a2e" stroke-width="0.8" rx="1"/>
  <rect x="150.02" y="337.78" width="119.78" height="106.20" fill="#dd5f5f" stroke="#1a1a2e" stroke-width="0.8" rx="1"/>
  <rect x="269.93" y="150.07" width="76.91" height="108.01" fill="#a8dd5f" stroke="#1a1a2e" stroke-width="0.8" rx="1"/>
  <rect x="244.81" y="285.00" width="98.13" height="46.06" fill="#5fddae" stroke="#1a1a2e" stroke-width="0.8" rx="1"/>
  <rect x="276.52" y="356.41" width="85.40" height="87.58" fill="#87dd5f" stroke="#1a1a2e" stroke-width="0.8" rx="1"/>
  <rect x="368.65" y="365.53" width="5.14" height="78.46" fill="#5f65dd" stroke="#1a1a2e" stroke-width="0.8" rx="1"/>
  <rect x="292.76" y="122.40" width="11.34" height="20.94" fill="#000000" stroke="#1a1a2e" stroke-width="0.8" rx="1"/>
  <rect x="146.40" y="64.01" width="127.21" height="44.12" fill="#5fdd82" stroke="#1a1a2e" stroke-width="0.8" rx="1"/>
  <rect x="171.50" y="128.93" width="81.42" height="7.57" fill="#000000" stroke="#1a1a2e" stroke-width="0.8" rx="1"/>
  <rect x="150.59" y="114.85" width="14.19" height="143.22" fill="#5fa7dd" stroke="#1a1a2e" stroke-width="0.8" rx="1"/>
  <rect x="93.61" y="134.29" width="50.26" height="123.78" fill="#5fdd69" stroke="#1a1a2e" stroke-width="0.8" rx="1"/>
  <rect x="154.38" y="264.80" width="83.71" height="66.26" fill="#5fdd84" stroke="#1a1a2e" stroke-width="0.8" rx="1"/>
  <rect x="353.56" y="169.19" width="44.71" height="88.88" fill="#5fddc4" stroke="#1a1a2e" stroke-width="0.8" rx="1"/>
  <rect x="77.07" y="267.16" width="70.59" height="63.90" fill="#5fddae" stroke="#1a1a2e" stroke-width="0.8" rx="1"/>
  <rect x="21.73" y="165.17" width="18.30" height="92.91" fill="#5f9add" stroke="#1a1a2e" stroke-width="0.8" rx="1"/>
  <rect x="87.33" y="358.96" width="37.57" height="85.03" fill="#5fd6dd" stroke="#1a1a2e" stroke-width="0.8" rx="1"/>
  <rect x="171.50" y="143.22" width="91.71" height="114.86" fill="#ddb75f" stroke="#1a1a2e" stroke-width="0.8" rx="1"/>
  <rect x="46.21" y="369.94" width="34.39" height="74.04" fill="#5fbcdd" stroke="#1a1a2e" stroke-width="0.8" rx="1"/>
  <rect x="46.75" y="148.63" width="40.14" height="109.44" fill="#5fddb3" stroke="#1a1a2e" stroke-width="0.8" rx="1"/>
  <rect x="131.62" y="355.12" width="11.69" height="88.87" fill="#5f7fdd" stroke="#1a1a2e" stroke-width="0.8" rx="1"/>
    </svg>
  </g>
  <g transform="translate(420,0)">
    <svg width="420" height="470">
  <rect width="100%" height="100%" fill="#1a1a2e"/>
  <text x="210.0" y="16" text-anchor="middle" font-family="monospace" font-size="12" font-weight="bold" fill="#ffffffcc">n=20|gap=0.0125,0.0125|ar=1.000</text>
  <text x="210.0" y="32" text-anchor="middle" font-family="monospace" font-size="12" fill="#ffffffaa">n=20 seed=236 84.4%|1.1ms</text>
  <rect x="20" y="64" width="380.0" height="380.0" fill="#cccccc" stroke="none"/>
  <rect x="274.41" y="300.73" width="88.83" height="70.99" fill="#69dd5f" stroke="#1a1a2e" stroke-width="0.8" rx="1"/>
  <rect x="20.02" y="245.31" width="96.39" height="13.53" fill="#5f90dd" stroke="#1a1a2e" stroke-width="0.8" rx="1"/>
  <rect x="174.77" y="265.13" width="93.35" height="106.59" fill="#ddb55f" stroke="#1a1a2e" stroke-width="0.8" rx="1"/>
  <rect x="24.85" y="304.66" width="41.30" height="24.48" fill="#000000" stroke="#1a1a2e" stroke-width="0.8" rx="1"/>
  <rect x="24.51" y="92.53" width="91.91" height="112.06" fill="#dda65f" stroke="#1a1a2e" stroke-width="0.8" rx="1"/>
  <rect x="72.43" y="268.12" width="96.06" height="103.60" fill="#ddb55f" stroke="#1a1a2e" stroke-width="0.8" rx="1"/>
  <rect x="122.70" y="237.93" width="47.28" height="20.92" fill="#5f83dd" stroke="#1a1a2e" stroke-width="0.8" rx="1"/>
  <rect x="369.52" y="349.48" width="29.62" height="22.25" fill="#5f75dd" stroke="#1a1a2e" stroke-width="0.8" rx="1"/>
  <rect x="39.65" y="380.52" width="121.30" height="57.53" fill="#86dd5f" stroke="#1a1a2e" stroke-width="0.8" rx="1"/>
  <rect x="386.58" y="188.64" width="8.91" height="15.95" fill="#5f5fdd" stroke="#1a1a2e" stroke-width="0.8" rx="1"/>
  <rect x="64.90" y="218.22" width="105.07" height="13.42" fill="#000000" stroke="#1a1a2e" stroke-width="0.8" rx="1"/>
  <rect x="167.23" y="378.01" width="91.35" height="60.05" fill="#5fdd77" stroke="#1a1a2e" stroke-width="0.8" rx="1"/>
  <rect x="264.87" y="383.98" width="115.48" height="54.08" fill="#66dd5f" stroke="#1a1a2e" stroke-width="0.8" rx="1"/>
  <rect x="20.85" y="335.42" width="45.29" height="36.30" fill="#5f9fdd" stroke="#1a1a2e" stroke-width="0.8" rx="1"/>
  <rect x="274.41" y="268.91" width="104.40" height="25.54" fill="#000000" stroke="#1a1a2e" stroke-width="0.8" rx="1"/>
  <rect x="221.75" y="69.94" width="89.01" height="134.65" fill="#dd5f5f" stroke="#1a1a2e" stroke-width="0.8" rx="1"/>
  <rect x="176.26" y="210.87" width="122.19" height="47.97" fill="#5fdd67" stroke="#1a1a2e" stroke-width="0.8" rx="1"/>
  <rect x="317.05" y="91.68" width="63.25" height="112.91" fill="#8cdd5f" stroke="#1a1a2e" stroke-width="0.8" rx="1"/>
  <rect x="122.70" y="80.49" width="92.76" height="124.10" fill="#dd735f" stroke="#1a1a2e" stroke-width="0.8" rx="1"/>
  <rect x="304.74" y="239.03" width="95.24" height="19.81" fill="#5fa9dd" stroke="#1a1a2e" stroke-width="0.8" rx="1"/>
    </svg>
  </g>
  <g transform="translate(840,0)">
    <svg width="420" height="470">
  <rect width="100%" height="100%" fill="#1a1a2e"/>
  <text x="210.0" y="16" text-anchor="middle" font-family="monospace" font-size="12" font-weight="bold" fill="#ffffffcc">n=20|gap=0.0125,0.0125|ar=1.000</text>
  <text x="210.0" y="32" text-anchor="middle" font-family="monospace" font-size="12" fill="#ffffffaa">n=20 seed=795 96.0%|0.9ms</text>
  <rect x="20" y="64" width="380.0" height="380.0" fill="#cccccc" stroke="none"/>
  <rect x="189.75" y="233.62" width="63.77" height="77.26" fill="#5fc3dd" stroke="#1a1a2e" stroke-width="0.8" rx="1"/>
  <rect x="367.28" y="257.90" width="28.00" height="52.97" fill="#5f79dd" stroke="#1a1a2e" stroke-width="0.8" rx="1"/>
  <rect x="24.72" y="252.11" width="136.23" height="58.77" fill="#5fddb4" stroke="#1a1a2e" stroke-width="0.8" rx="1"/>
  <rect x="29.00" y="338.47" width="31.73" height="7.79" fill="#000000" stroke="#1a1a2e" stroke-width="0.8" rx="1"/>
  <rect x="207.14" y="64.01" width="23.22" height="162.17" fill="#5faadd" stroke="#1a1a2e" stroke-width="0.8" rx="1"/>
  <rect x="379.56" y="319.58" width="11.23" height="36.25" fill="#000000" stroke="#1a1a2e" stroke-width="0.8" rx="1"/>
  <rect x="394.13" y="108.98" width="5.45" height="117.21" fill="#5f67dd" stroke="#1a1a2e" stroke-width="0.8" rx="1"/>
  <rect x="68.16" y="332.77" width="70.32" height="111.22" fill="#5fddb8" stroke="#1a1a2e" stroke-width="0.8" rx="1"/>
  <rect x="145.91" y="318.31" width="75.00" height="125.67" fill="#5fdd96" stroke="#1a1a2e" stroke-width="0.8" rx="1"/>
  <rect x="291.35" y="363.26" width="104.29" height="80.73" fill="#5fddab" stroke="#1a1a2e" stroke-width="0.8" rx="1"/>
  <rect x="35.38" y="236.51" width="125.57" height="8.16" fill="#000000" stroke="#1a1a2e" stroke-width="0.8" rx="1"/>
  <rect x="228.35" y="343.52" width="55.57" height="100.47" fill="#5fd1dd" stroke="#1a1a2e" stroke-width="0.8" rx="1"/>
  <rect x="49.99" y="67.66" width="149.71" height="158.53" fill="#dd5f5f" stroke="#1a1a2e" stroke-width="0.8" rx="1"/>
  <rect x="24.36" y="353.70" width="36.37" height="90.29" fill="#5fa0dd" stroke="#1a1a2e" stroke-width="0.8" rx="1"/>
  <rect x="237.79" y="69.03" width="148.90" height="157.15" fill="#dd665f" stroke="#1a1a2e" stroke-width="0.8" rx="1"/>
  <rect x="260.95" y="248.80" width="98.89" height="62.08" fill="#5fdddc" stroke="#1a1a2e" stroke-width="0.8" rx="1"/>
  <rect x="83.52" y="318.54" width="54.96" height="6.80" fill="#000000" stroke="#1a1a2e" stroke-width="0.8" rx="1"/>
  <rect x="20.42" y="95.73" width="22.14" height="130.45" fill="#5f97dd" stroke="#1a1a2e" stroke-width="0.8" rx="1"/>
  <rect x="168.39" y="247.74" width="13.93" height="63.14" fill="#5f6cdd" stroke="#1a1a2e" stroke-width="0.8" rx="1"/>
  <rect x="291.35" y="320.45" width="80.77" height="35.37" fill="#000000" stroke="#1a1a2e" stroke-width="0.8" rx="1"/>
    </svg>
  </g>
  <g transform="translate(1260,0)">
    <svg width="420" height="470">
  <rect width="100%" height="100%" fill="#1a1a2e"/>
  <text x="210.0" y="16" text-anchor="middle" font-family="monospace" font-size="12" font-weight="bold" fill="#ffffffcc">n=20|gap=0.0025,0.0025|ar=1.000</text>
  <text x="210.0" y="32" text-anchor="middle" font-family="monospace" font-size="12" fill="#ffffffaa">n=20 seed=765 29.9%|0.9ms</text>
  <rect x="20" y="64" width="380.0" height="380.0" fill="#cccccc" stroke="none"/>
  <rect x="159.25" y="277.11" width="0.02" height="0.02" fill="#000000" stroke="#1a1a2e" stroke-width="0.8" rx="1"/>
  <rect x="355.30" y="286.04" width="26.28" height="38.98" fill="#5f79dd" stroke="#1a1a2e" stroke-width="0.8" rx="1"/>
  <rect x="312.75" y="283.68" width="22.97" height="41.34" fill="#5f77dd" stroke="#1a1a2e" stroke-width="0.8" rx="1"/>
  <rect x="230.51" y="272.28" width="28.68" height="52.74" fill="#5f85dd" stroke="#1a1a2e" stroke-width="0.8" rx="1"/>
  <rect x="154.13" y="193.77" width="23.10" height="16.91" fill="#5f69dd" stroke="#1a1a2e" stroke-width="0.8" rx="1"/>
  <rect x="70.45" y="284.41" width="35.09" height="40.61" fill="#5f83dd" stroke="#1a1a2e" stroke-width="0.8" rx="1"/>
  <rect x="20.01" y="215.45" width="379.98" height="52.06" fill="#dd5f5f" stroke="#1a1a2e" stroke-width="0.8" rx="1"/>
  <rect x="34.13" y="284.57" width="31.55" height="40.45" fill="#5f7fdd" stroke="#1a1a2e" stroke-width="0.8" rx="1"/>
  <rect x="263.96" y="281.00" width="44.02" height="44.02" fill="#5f90dd" stroke="#1a1a2e" stroke-width="0.8" rx="1"/>
  <rect x="20.04" y="291.06" width="9.31" height="33.96" fill="#5f67dd" stroke="#1a1a2e" stroke-width="0.8" rx="1"/>
  <rect x="164.04" y="274.48" width="2.64" height="2.64" fill="#000000" stroke="#1a1a2e" stroke-width="0.8" rx="1"/>
  <rect x="249.28" y="191.13" width="16.59" height="19.56" fill="#5f67dd" stroke="#1a1a2e" stroke-width="0.8" rx="1"/>
  <rect x="182.01" y="184.78" width="22.21" height="25.90" fill="#5f6ddd" stroke="#1a1a2e" stroke-width="0.8" rx="1"/>
  <rect x="386.35" y="312.96" width="13.60" height="12.06" fill="#5f63dd" stroke="#1a1a2e" stroke-width="0.8" rx="1"/>
  <rect x="209.00" y="182.98" width="35.51" height="27.71" fill="#5f78dd" stroke="#1a1a2e" stroke-width="0.8" rx="1"/>
  <rect x="110.31" y="281.89" width="87.52" height="43.13" fill="#5fbfdd" stroke="#1a1a2e" stroke-width="0.8" rx="1"/>
  <rect x="340.49" y="284.46" width="10.04" height="40.57" fill="#5f69dd" stroke="#1a1a2e" stroke-width="0.8" rx="1"/>
  <rect x="185.93" y="273.26" width="11.90" height="3.86" fill="#000000" stroke="#1a1a2e" stroke-width="0.8" rx="1"/>
  <rect x="171.45" y="276.24" width="9.71" height="0.88" fill="#000000" stroke="#1a1a2e" stroke-width="0.8" rx="1"/>
  <rect x="202.60" y="278.53" width="23.13" height="46.50" fill="#5f7add" stroke="#1a1a2e" stroke-width="0.8" rx="1"/>
    </svg>
  </g>
  <g transform="translate(1680,0)">
    <svg width="420" height="470">
  <rect width="100%" height="100%" fill="#1a1a2e"/>
  <text x="210.0" y="16" text-anchor="middle" font-family="monospace" font-size="12" font-weight="bold" fill="#ffffffcc">n=20|gap=0.0025,0.0025|ar=1.000</text>
  <text x="210.0" y="32" text-anchor="middle" font-family="monospace" font-size="12" fill="#ffffffaa">n=20 seed=104 83.9%|0.9ms</text>
  <rect x="20" y="64" width="380.0" height="380.0" fill="#cccccc" stroke="none"/>
  <rect x="22.51" y="94.71" width="87.35" height="69.04" fill="#5fdd86" stroke="#1a1a2e" stroke-width="0.8" rx="1"/>
  <rect x="21.90" y="329.72" width="18.35" height="114.26" fill="#5fa3dd" stroke="#1a1a2e" stroke-width="0.8" rx="1"/>
  <rect x="340.86" y="89.32" width="56.63" height="74.43" fill="#5fddc9" stroke="#1a1a2e" stroke-width="0.8" rx="1"/>
  <rect x="275.93" y="64.01" width="53.17" height="99.74" fill="#5fdda1" stroke="#1a1a2e" stroke-width="0.8" rx="1"/>
  <rect x="358.14" y="374.77" width="39.96" height="69.22" fill="#5fbbdd" stroke="#1a1a2e" stroke-width="0.8" rx="1"/>
  <rect x="21.68" y="197.44" width="4.94" height="46.58" fill="#5f5fdd" stroke="#1a1a2e" stroke-width="0.8" rx="1"/>
  <rect x="236.23" y="272.78" width="55.81" height="22.51" fill="#5f84dd" stroke="#1a1a2e" stroke-width="0.8" rx="1"/>
  <rect x="127.96" y="275.17" width="19.83" height="20.11" fill="#5f65dd" stroke="#1a1a2e" stroke-width="0.8" rx="1"/>
  <rect x="183.63" y="255.78" width="40.83" height="39.51" fill="#5f91dd" stroke="#1a1a2e" stroke-width="0.8" rx="1"/>
  <rect x="281.96" y="192.69" width="68.02" height="51.33" fill="#5fd6dd" stroke="#1a1a2e" stroke-width="0.8" rx="1"/>
  <rect x="361.74" y="196.08" width="36.58" height="47.94" fill="#5f96dd" stroke="#1a1a2e" stroke-width="0.8" rx="1"/>
  <rect x="159.55" y="272.09" width="12.32" height="23.20" fill="#5f61dd" stroke="#1a1a2e" stroke-width="0.8" rx="1"/>
  <rect x="145.01" y="175.51" width="125.18" height="68.50" fill="#94dd5f" stroke="#1a1a2e" stroke-width="0.8" rx="1"/>
  <rect x="182.77" y="307.04" width="98.72" height="136.94" fill="#dd705f" stroke="#1a1a2e" stroke-width="0.8" rx="1"/>
  <rect x="90.73" y="188.38" width="42.52" height="55.63" fill="#5faddd" stroke="#1a1a2e" stroke-width="0.8" rx="1"/>
  <rect x="38.37" y="194.48" width="40.59" height="49.54" fill="#5fa0dd" stroke="#1a1a2e" stroke-width="0.8" rx="1"/>
  <rect x="52.00" y="326.45" width="119.01" height="117.54" fill="#dd5f5f" stroke="#1a1a2e" stroke-width="0.8" rx="1"/>
  <rect x="293.26" y="327.53" width="53.13" height="116.46" fill="#5fdd80" stroke="#1a1a2e" stroke-width="0.8" rx="1"/>
  <rect x="121.62" y="86.23" width="142.55" height="77.53" fill="#ddca5f" stroke="#1a1a2e" stroke-width="0.8" rx="1"/>
  <rect x="358.14" y="313.75" width="36.50" height="49.26" fill="#000000" stroke="#1a1a2e" stroke-width="0.8" rx="1"/>
    </svg>
  </g>
  <g transform="translate(2100,0)">
    <svg width="420" height="470">
  <rect width="100%" height="100%" fill="#1a1a2e"/>
  <text x="210.0" y="16" text-anchor="middle" font-family="monospace" font-size="12" font-weight="bold" fill="#ffffffcc">n=20|gap=0.0025,0.0025|ar=1.000</text>
  <text x="210.0" y="32" text-anchor="middle" font-family="monospace" font-size="12" fill="#ffffffaa">n=20 seed=583 98.7%|0.9ms</text>
  <rect x="20" y="64" width="380.0" height="380.0" fill="#cccccc" stroke="none"/>
  <rect x="318.56" y="101.54" width="28.41" height="54.06" fill="#5f6cdd" stroke="#1a1a2e" stroke-width="0.8" rx="1"/>
  <rect x="166.75" y="165.80" width="225.74" height="225.74" fill="#dd5f5f" stroke="#1a1a2e" stroke-width="0.8" rx="1"/>
  <rect x="379.98" y="408.29" width="14.78" height="35.70" fill="#5f62dd" stroke="#1a1a2e" stroke-width="0.8" rx="1"/>
  <rect x="357.16" y="68.18" width="36.86" height="34.20" fill="#000000" stroke="#1a1a2e" stroke-width="0.8" rx="1"/>
  <rect x="91.46" y="92.80" width="67.83" height="62.80" fill="#5f87dd" stroke="#1a1a2e" stroke-width="0.8" rx="1"/>
  <rect x="21.49" y="101.95" width="59.78" height="53.65" fill="#5f7ddd" stroke="#1a1a2e" stroke-width="0.8" rx="1"/>
  <rect x="172.33" y="401.73" width="100.17" height="42.25" fill="#5f87dd" stroke="#1a1a2e" stroke-width="0.8" rx="1"/>
  <rect x="53.20" y="77.74" width="10.47" height="14.01" fill="#000000" stroke="#1a1a2e" stroke-width="0.8" rx="1"/>
  <rect x="287.65" y="71.28" width="20.72" height="84.32" fill="#5f6fdd" stroke="#1a1a2e" stroke-width="0.8" rx="1"/>
  <rect x="27.51" y="171.92" width="129.05" height="219.62" fill="#7add5f" stroke="#1a1a2e" stroke-width="0.8" rx="1"/>
  <rect x="126.62" y="401.80" width="35.52" height="42.19" fill="#5f6cdd" stroke="#1a1a2e" stroke-width="0.8" rx="1"/>
  <rect x="357.16" y="112.57" width="41.34" height="43.03" fill="#5f6fdd" stroke="#1a1a2e" stroke-width="0.8" rx="1"/>
  <rect x="169.49" y="69.90" width="63.55" height="85.70" fill="#5f93dd" stroke="#1a1a2e" stroke-width="0.8" rx="1"/>
  <rect x="84.89" y="402.32" width="31.53" height="41.67" fill="#5f6add" stroke="#1a1a2e" stroke-width="0.8" rx="1"/>
  <rect x="324.06" y="402.59" width="45.73" height="41.40" fill="#5f70dd" stroke="#1a1a2e" stroke-width="0.8" rx="1"/>
  <rect x="243.23" y="64.01" width="34.22" height="91.59" fill="#5f7cdd" stroke="#1a1a2e" stroke-width="0.8" rx="1"/>
  <rect x="73.86" y="65.90" width="85.43" height="16.70" fill="#000000" stroke="#1a1a2e" stroke-width="0.8" rx="1"/>
  <rect x="34.74" y="75.18" width="8.27" height="16.57" fill="#000000" stroke="#1a1a2e" stroke-width="0.8" rx="1"/>
  <rect x="25.24" y="407.32" width="49.46" height="36.67" fill="#5f6fdd" stroke="#1a1a2e" stroke-width="0.8" rx="1"/>
  <rect x="282.69" y="401.84" width="31.17" height="42.15" fill="#5f6add" stroke="#1a1a2e" stroke-width="0.8" rx="1"/>
    </svg>
  </g>
  <text x="210" y="486" text-anchor="middle" font-family="monospace" font-size="11" fill="#ffffffcc">uniform worst</text>
  <text x="630" y="486" text-anchor="middle" font-family="monospace" font-size="11" fill="#ffffffcc">uniform median</text>
  <text x="1050" y="486" text-anchor="middle" font-family="monospace" font-size="11" fill="#ffffffcc">uniform best</text>
  <text x="1470" y="486" text-anchor="middle" font-family="monospace" font-size="11" fill="#ffffffcc">strava worst</text>
  <text x="1890" y="486" text-anchor="middle" font-family="monospace" font-size="11" fill="#ffffffcc">strava median</text>
  <text x="2310" y="486" text-anchor="middle" font-family="monospace" font-size="11" fill="#ffffffcc">strava best</text>
  <line x1="420" y1="0" x2="420" y2="470" stroke="#ffffff33" stroke-width="1"/>
  <line x1="840" y1="0" x2="840" y2="470" stroke="#ffffff33" stroke-width="1"/>
  <line x1="1260" y1="0" x2="1260" y2="470" stroke="#ffffff33" stroke-width="1"/>
  <line x1="1680" y1="0" x2="1680" y2="470" stroke="#ffffff33" stroke-width="1"/>
  <line x1="2100" y1="0" x2="2100" y2="470" stroke="#ffffff33" stroke-width="1"/>
  <line x1="1260" y1="0" x2="1260" y2="470" stroke="#ffffff88" stroke-width="2"/>
</svg>