<svg xmlns="http://www.w3.org/2000/svg" width="700" height="220">
  <rect width="100%" height="100%" fill="#0e0e1a"/>
  <rect x="0" y="0" width="700" height="220" fill="#1a1a2e"/>
  <text x="350" y="19" text-anchor="middle" font-family="monospace" font-size="13" font-weight="bold" fill="#ffffffcc">uniform vs strava  |  n=20  |  1000 seeds  |  ar=1.0</text>
  <rect x="50" y="38" width="630" height="154" fill="#0d0d20"/>
  <line x1="50.0" y1="38" x2="50.0" y2="192" stroke="#ffffff22" stroke-width="1"/>
  <text x="50.0" y="206" text-anchor="middle" font-family="monospace" font-size="11" fill="#ffffff88">40%</text>
  <line x1="151.6" y1="38" x2="151.6" y2="192" stroke="#ffffff22" stroke-width="1"/>
  <text x="151.6" y="206" text-anchor="middle" font-family="monospace" font-size="11" fill="#ffffff88">50%</text>
  <line x1="253.2" y1="38" x2="253.2" y2="192" stroke="#ffffff22" stroke-width="1"/>
  <text x="253.2" y="206" text-anchor="middle" font-family="monospace" font-size="11" fill="#ffffff88">60%</text>
  <line x1="354.8" y1="38" x2="354.8" y2="192" stroke="#ffffff22" stroke-width="1"/>
  <text x="354.8" y="206" text-anchor="middle" font-family="monospace" font-size="11" fill="#ffffff88">70%</text>
  <line x1="456.5" y1="38" x2="456.5" y2="192" stroke="#ffffff22" stroke-width="1"/>
  <text x="456.5" y="206" text-anchor="middle" font-family="monospace" font-size="11" fill="#ffffff88">80%</text>
  <line x1="558.1" y1="38" x2="558.1" y2="192" stroke="#ffffff22" stroke-width="1"/>
  <text x="558.1" y="206" text-anchor="middle" font-family="monospace" font-size="11" fill="#ffffff88">90%</text>
  <line x1="659.7" y1="38" x2="659.7" y2="192" stroke="#ffffff22" stroke-width="1"/>
  <text x="659.7" y="206" text-anchor="middle" font-family="monospace" font-size="11" fill="#ffffff88">100%</text>
  <rect x="375.2" y="191.3" width="20.3" height="0.7" fill="#4a9eddcc" stroke="#2a6ea8" stroke-width="0.5"/>
  <rect x="395.5" y="186.6" width="20.3" height="5.4" fill="#4a9eddcc" stroke="#2a6ea8" stroke-width="0.5"/>
  <rect x="415.8" y="174.4" width="20.3" height="17.6" fill="#4a9eddcc" stroke="#2a6ea8" stroke-width="0.5"/>
  <rect x="436.1" y="148.6" width="20.3" height="43.4" fill="#4a9eddcc" stroke="#2a6ea8" stroke-width="0.5"/>
  <rect x="456.5" y="97.0" width="20.3" height="95.0" fill="#4a9eddcc" stroke="#2a6ea8" stroke-width="0.5"/>
  <rect x="476.8" y="49.5" width="20.3" height="142.5" fill="#4a9eddcc" stroke="#2a6ea8" stroke-width="0.5"/>
  <rect x="497.1" y="38.0" width="20.3" height="154.0" fill="#4a9eddcc" stroke="#2a6ea8" stroke-width="0.5"/>
  <rect x="517.4" y="63.1" width="20.3" height="128.9" fill="#4a9eddcc" stroke="#2a6ea8" stroke-width="0.5"/>
  <rect x="537.7" y="126.2" width="20.3" height="65.8" fill="#4a9eddcc" stroke="#2a6ea8" stroke-width="0.5"/>
  <rect x="558.1" y="176.4" width="20.3" height="15.6" fill="#4a9eddcc" stroke="#2a6ea8" stroke-width="0.5"/>
  <rect x="578.4" y="183.9" width="20.3" height="8.1" fill="#4a9eddcc" stroke="#2a6ea8" stroke-width="0.5"/>
  <rect x="598.7" y="190.6" width="20.3" height="1.4" fill="#4a9eddcc" stroke="#2a6ea8" stroke-width="0.5"/>
  <rect x="50.0" y="187.9" width="20.3" height="4.1" fill="#e07040cc" stroke="#a04010" stroke-width="0.5"/>
  <rect x="90.6" y="190.0" width="20.3" height="2.0" fill="#e07040cc" stroke="#a04010" stroke-width="0.5"/>
  <rect x="111.0" y="187.9" width="20.3" height="4.1" fill="#e07040cc" stroke="#a04010" stroke-width="0.5"/>
  <rect x="131.3" y="189.3" width="20.3" height="2.7" fill="#e07040cc" stroke="#a04010" stroke-width="0.5"/>
  <rect x="151.6" y="190.6" width="20.3" height="1.4" fill="#e07040cc" stroke="#a04010" stroke-width="0.5"/>
  <rect x="171.9" y="190.0" width="20.3" height="2.0" fill="#e07040cc" stroke="#a04010" stroke-width="0.5"/>
  <rect x="192.3" y="189.3" width="20.3" height="2.7" fill="#e07040cc" stroke="#a04010" stroke-width="0.5"/>
  <rect x="212.6" y="191.3" width="20.3" height="0.7" fill="#e07040cc" stroke="#a04010" stroke-width="0.5"/>
  <rect x="232.9" y="186.6" width="20.3" height="5.4" fill="#e07040cc" stroke="#a04010" stroke-width="0.5"/>
  <rect x="253.2" y="187.3" width="20.3" height="4.7" fill="#e07040cc" stroke="#a04010" stroke-width="0.5"/>
  <rect x="273.5" y="187.3" width="20.3" height="4.7" fill="#e07040cc" stroke="#a04010" stroke-width="0.5"/>
  <rect x="293.9" y="183.2" width="20.3" height="8.8" fill="#e07040cc" stroke="#a04010" stroke-width="0.5"/>
  <rect x="314.2" y="185.2" width="20.3" height="6.8" fill="#e07040cc" stroke="#a04010" stroke-width="0.5"/>
  <rect x="334.5" y="183.2" width="20.3" height="8.8" fill="#e07040cc" stroke="#a04010" stroke-width="0.5"/>
  <rect x="354.8" y="177.8" width="20.3" height="14.2" fill="#e07040cc" stroke="#a04010" stroke-width="0.5"/>
  <rect x="375.2" y="180.5" width="20.3" height="11.5" fill="#e07040cc" stroke="#a04010" stroke-width="0.5"/>
  <rect x="395.5" y="177.1" width="20.3" height="14.9" fill="#e07040cc" stroke="#a04010" stroke-width="0.5"/>
  <rect x="415.8" y="160.8" width="20.3" height="31.2" fill="#e07040cc" stroke="#a04010" stroke-width="0.5"/>
  <rect x="436.1" y="141.8" width="20.3" height="50.2" fill="#e07040cc" stroke="#a04010" stroke-width="0.5"/>
  <rect x="456.5" y="120.1" width="20.3" height="71.9" fill="#e07040cc" stroke="#a04010" stroke-width="0.5"/>
  <rect x="476.8" y="98.4" width="20.3" height="93.6" fill="#e07040cc" stroke="#a04010" stroke-width="0.5"/>
  <rect x="497.1" y="89.6" width="20.3" height="102.4" fill="#e07040cc" stroke="#a04010" stroke-width="0.5"/>
  <rect x="517.4" y="95.7" width="20.3" height="96.3" fill="#e07040cc" stroke="#a04010" stroke-width="0.5"/>
  <rect x="537.7" y="122.8" width="20.3" height="69.2" fill="#e07040cc" stroke="#a04010" stroke-width="0.5"/>
  <rect x="558.1" y="154.7" width="20.3" height="37.3" fill="#e07040cc" stroke="#a04010" stroke-width="0.5"/>
  <rect x="578.4" y="173.0" width="20.3" height="19.0" fill="#e07040cc" stroke="#a04010" stroke-width="0.5"/>
  <rect x="598.7" y="185.9" width="20.3" height="6.1" fill="#e07040cc" stroke="#a04010" stroke-width="0.5"/>
  <rect x="619.0" y="191.3" width="20.3" height="0.7" fill="#e07040cc" stroke="#a04010" stroke-width="0.5"/>
  <rect x="639.4" y="191.3" width="20.3" height="0.7" fill="#e07040cc" stroke="#a04010" stroke-width="0.5"/>
  <rect x="58" y="42" width="12" height="12" fill="#4a9eddcc"/>
  <text x="74" y="52" font-family="monospace" font-size="11" fill="#ffffffcc">uniform  mean 84.4%</text>
  <rect x="58" y="60" width="12" height="12" fill="#e07040cc"/>
  <text x="74" y="70" font-family="monospace" font-size="11" fill="#ffffffcc">strava  mean 81.9%</text>
</svg>